<mxfile host="app.diagrams.net" modified="2024-04-04T00:21:34.408Z" agent="Mozilla/5.0 (Windows NT 10.0; Win64; x64) AppleWebKit/537.36 (KHTML, like Gecko) Chrome/123.0.0.0 Safari/537.36" etag="E1SZMGFs4sJVnU1h0tcr" version="24.2.0" type="google">
  <diagram name="CodePix" id="p9jth9q1IGnT0qXnwxLz">
    <mxGraphModel dx="2103" dy="1090" grid="1" gridSize="10" guides="1" tooltips="1" connect="1" arrows="1" fold="1" page="1" pageScale="1" pageWidth="1169" pageHeight="827" math="0" shadow="0">
      <root>
        <mxCell id="0" />
        <mxCell id="1" parent="0" />
        <mxCell id="4NnvcPufkdFd_n3cXTJO-1" value="&amp;lt;&amp;lt;consume Transaction_Confirmation&amp;gt;&amp;gt;" style="edgeStyle=orthogonalEdgeStyle;rounded=0;orthogonalLoop=1;jettySize=auto;html=1;entryX=1.023;entryY=0.553;entryDx=0;entryDy=0;entryPerimeter=0;" edge="1" parent="1" source="4NnvcPufkdFd_n3cXTJO-2" target="4NnvcPufkdFd_n3cXTJO-32">
          <mxGeometry relative="1" as="geometry" />
        </mxCell>
        <mxCell id="4NnvcPufkdFd_n3cXTJO-2" value="Kafka" style="shape=image;verticalLabelPosition=bottom;labelBackgroundColor=#ffffff;verticalAlign=top;imageAspect=0;image=data:image/png,iVBORw0KGgoAAAANSUhEUgAAATsAAAIACAMAAADKVzsGAAAABGdBTUEAALGPC/xhBQAAAAFzUkdCAK7OHOkAAAMAUExURUdwTAAAAAAAAAAAAAAAAAAAAAAAAAAAAAAAAAAAAAAAAAAAAAAAAAAAAAAAAAAAAAAAAAAAAAAAAAAAAAAAAAAAAAAAAAAAAAAAAAAAAAAAAAAAAAAAAAAAAAAAAAAAAAAAAAAAAAAAAAAAAAAAAAAAAAAAAAAAAAAAAAAAAAAAAAAAAAAAAAAAAAAAAAAAAAAAAAAAAAAAAAAAAAAAAAAAAAAAAAAAAAAAAAAAAAAAAAAAAAAAAAAAAAAAAAAAAAAAAAAAAAAAAAAAAAAAAAAAAAAAAAAAAAAAAAAAAAAAAAAAAAAAAAAAAAAAAAAAAAAAAAAAAAAAAAAAAAAAAAAAAAAAAAAAAAAAAAAAAAAAAAAAAAAAAAAAAAAAAAAAAAAAAAAAAAAAAAAAAAAAAAAAAAAAAAAAAAAAAAAAAAAAAAAAAAAAAAAAAAAAAAAAAAAAAAAAAAAAAAAAAAAAAAAAAAAAAAAAAAAAAAAAAAAAAAAAAAAAAAAAAAAAAAAAAAAAAAAAAAAAAAAAAAAAAAAAAAAAAAAAAAAAAAAAAAAAAAAAAAAAAAAAAAAAAAAAAAAAAAAAAAAAAAAAAAAAAAAAAAAAAAAAAAAAAAAAAAAAAAAAAAAAAAAAAAAAAAAAAAAAAAAAAAAAAAAAAAAAAAAAAAAAAAAAAAAAAAAAAAAAAAAAAAAAAAAAAAAAAAAAAAAAAAAAAAAAAAAAAAAAAAAAAAAAAAAAAAAAAAAAAAAAAAAAAAAAAAAAAAAAAAAAAAAAAAAAAAAAAAAAAAAAAAAAAAAAAAAAAAAAAAAAAAAAAAAAAAAAAAAAAAAAAAAAAAAAAAAAAAAAAAAAAAAAAAAAAAAAAAAAAAAAAAAAAAAAAAAAAAAAAAAAAAAAAAAAAAAAAAAAAAAAAAAAAAAAAAAAAAAAAAAAAAAAAAAAAAAAAAAAAAAAAAAAAAAAAAAAAAAAAAAAAAAAAAAAAAAAAAAAAAAAAAAAAAAAAAAAAAAAAAAAAAAAAAAAAAAAAAAAANHuELwAAAD/dFJOUwADzAk01GwB/v0C/PX7BAgH+AX6Bvbp+Qv39PMM5vEK5c7qD+4dDt1xIujk7N6h72cajPBAnrYUFRkY8nqC4B/A37kQbhPSHutJ7VpKMUPjidZbHGq8F1zLbynismIRLC2GLjZRVZHQnMQmfBtPmJqO2hZ5ZOelfaxWiKqEyMUgsDhtdrsvfzfRk9sjTT+zlQ2dYUjHElifojJzv7Smh8bN2ConY6k9z2CZ16BlgSSXg65d1VBCwyh3THvTVJS4dZswyWmoil8zj0aQIU47RNlTNWvKPHjhwZaxOrclrWZXQX4rjas5p766r9xSgD6kR2hytYu9koVFWXB0S8KjXiBJhLsAACAASURBVHja7J13WFVHFsAfPpBXQECpUkQEQQEbYiVgQaOIIhoVBFEsKGJAxd4FiYjYjbFHXBezatYejcYao9FEY6LRWNeYjZpYsm5ii/vtRL/99tvEBebMnLkX5j7O/++U373vzsyZmXN0OnHSe97xe8MupcdHjo2JqZ/0xdR/Nki9/uQzW12llCktdn3Sy5WUKK3fXdDns0pCJYu+86MiQhHfzcveriT1itQaMsGFgMR8u1HzSl7/k5mLPAmD2CcXWlVCeymOG/IJswTvq/zv6upk1CdcYnfgdcsm57XPn3CL24GWlkvOdN2VoMRlm7uFoiveSNAS3MMiP3RZBiJC7ljehDnWlwgSu2jLWq7pFxCBcqWVBaHbY0OEit8Ti0F3tzURLMYIC/nfvkYUkAl6S1iCjSOKyNHRmke3sA1RSEL/qnF0KeeIYuK9XtPomucTBaXTEQ2ja1+bKCp+fbWbNVlKFBbfehpFV+0KUVwKNJqP/wtRQaY5aBHdQ6KKrNEguhtmddiRIM2h6+mqEjpif19j6ExtiGoSrLEttGyiolzTFLquNdRkRxZraWZXW1V0pKGGEsl7icoyQTPoolzUZkditcJusuroSFF1baC7zxN8SHr4pIzEqtmpW3sFW/AMeSpzBjhr2R8+9nVjmzAfIYipqwV0HzKOkZmXS9IyfEokm563tMCOaX7iG1Tq6RzT3zqyaApLkR/dEoZ4fZ45lqXK9i7Lu5chP7tZDOkj6pS21mM3sLb6jrKjy4O/dB9B9FkHghWOsZhkce25MIV1roE1So7OHXr0pB34BKftp1B4J+RmtwEY5i2WdQB0eZwpN7tVsCi3s92XyIBp9Zd6YdbSCAqyDeuQOMcCMgI5oBAD6zCn8JuBFDeQmV0v0D0Jjm96c1CCIEbiq1PuoJlsIo/qYtDX4Ht52RVC4ptq4tK9FaL7fXnZnYLc6VzBp7s9ZMN3mrzsEgDhZfEqvw5Q7iTtmtbdHrCLz30txzkJAO+8rOwgyfblyk6AfpWVXTQguBX86vU+ij6a8pVh9Nj2Y/SH0/UPlZUdYJMnF6O/KWDeLevsuBM9NtT5YFs/uoEoOdF50SOLxFkAbJo3lZPdTXpk7+AsfKzZI1FP6JFtwVkYSLcQISe7ZfTIinEW9PSEwHdysqtKZ9cCaaKtVlN49Mx4a+Xzg5fkZLeNGlgc1gR9v/GgnOy6UwPbhDWxmWpilZzsRlIDS8CaOKDVDN5aamD5WBNZVBO3tTpWhGJN3KKamC8nuyD6RWusidX0AwdysqMnxY2OSBP0c5HD5GTXgz43vomzYFuTaiFNTnaf09mdxVkIoFuYIie7rvTIXsNZABwDbyQnuzr0yNKVnkESWatsxVAjq4GrOTmUzm6upOwAW9ufY/S3pFduNFeTlB0gJf53jP5DRPnZd3kJoFibU3uEfsBdlXaysnsO2NvO4Vc/myg+kJefdAAEl8R/Jng+QP0SWdnpRgGi28CrHHLrxdBeWnbLAeFF1uJUDjlyHC8tOsj+KSGpfLrvQnQPk5ddPdBRba6idV6Q03fkqbzsdKAbrxt5Soc9AD0WmS9vw8rxctxdGgNSfEVidJBUykvpxzy1g1UNuS4zOx3sorW5kE3rnhCQWmNvqdl1h714LkxHvaIuwLRelBqdbi6wSYXHYLjOAdD2DbL3BWkHjNP8MVTjjTCgSldnydntAl/vf+AF0WcaD659mSo5Op1VHBhe0WzApw5e9sKsXA8ufd6uZ58+OJiwKTDO+0KBzbRL4VO2nFGg22YEvMaHIYtSbdI5wg6ubYYi2BxP504uKvnV91yauXi4UGMLQ+DhkpiMMq4hV+9XwFKYx1o4N9uuERedaB/ZY8cFzoxyWQImYWtLeXSjn7EVhNouGtzlNOD4bpga1FOQ0Vqs1Xmn5ux5VUfjPqvt2ZQY+wsl1/MtpidnWNXFUYjdIMIsvuMi7t4crX/xhetwNTYoq4hdwziR5HYnsxe2DvlZxMvn0JZwir0b9y/FNVExdeGs9Go/bgDe+nOiuqwV9pmbGM/vheHYHrQDE9RGVyCqm8B9ZHVhcxa2BVNjH5XZdRND7nUBVV59ViKPJuSoi07MjWNTtKcQb/JxM03TbTXR1RfSPGX4u6L8Mf+MmrC0dFUPnXG3CHRbagp0aSiq/ddJg2rs7gkgV1fw8OaCurGZqha6XiY8ur5Fwt0ahvjfWq1SB91YAUvxQk8FHEtAdFZPiVcDXc1BeHTRRkVcu4BYYkd5K4/OvjMeXROlnAtDFC9Y4ak4u/fwszoF26i5IJ7sEjeF0eGrA5iWK+mf2y5+zzp7KIruMX7pH67sw3VDvHnd7BR07Gv8t+6A0h8VF8Q373xrpbwyfIVHN1750cwHkdQbVF8Zn8zH8eh6EBUkqTG/gwHrlPDI/yQe3WU3NdiRdYiW9Ppj4v3pKKBpbytvoo6garZki564/9kdj67av1TLVryB8XNepEhXnFaKSDo9Vi9L5pSHyvG8I3CRvV4EumKjeuzITj3K111+YtxwyxByVXFhJFFT5uC8bb5VRCfkowPFbOt8o+6OiuE00t8BvbAutH0q6ODWeYO67Eg8+szFm6Mw9hseEnPo48UYu5OoLePRTlst28hr3D+1g7BzEzmqoyM1RwjwewlXK+7Aqu7CyOnejuEZpHZun5Ma8XDvtsxmBTxj9AMhrlsvYPTduOqsSSdQmDPFPjOi+/++crL7vPHprPwMR8Q473x3Brwjd5WVI3RCpSVbb2H71RNLOu7SKrEjG7xkYQF06NFgLN1ejfRvxR7pfSmPWCL2OFD6GfCmV5jgDRIYg21eblmHk40J3Ze468RLC4ZktjGz7J6Rp48ysPtBbBxVyjBlo1NG7jGkj6iviu2WMPiDuCo7Owfw4tCQCqmsHwCfN2yVnd0OaKQhPwHnrJPAc7yFkrP7ALr+gw9Sx6GThutys9sDDHM/yzZDoRNMaYLc7KbAohzFVj79Q+Cb9yep2cHuWXlPZ1T7bxi7b2VmtwKWJGdvyQQ7bxgvM7v3ldqcMcGSk1clZncOEuAEHs2NQQmOaHnZNYdkP8L4jpK+B2HXTF52EyHx8dbog8wc7apJyy4NEJ4Nb4+zL9VNpqjNrgogui7c2mcAtAfJyk4PuNH8I39rvZkAdpNlZWet8EgIyOYVycquHyBTjbmctoWu36yXlB2gqDmq0VQKYFl7QlJ2yfTQdqAMAEo6TZSUHWBnC7cn94xuYK+k7OgHx79QPNWwVU52gC6v4TgLVh7KflDLj10UnV0u0gT9YHq6nOxO0Nm9iTRxTL0JnrrsutHZYUsj0ffMXOVkByh6gy1M9Cs9wyUnu8F0dnWQJugrCw852QGyd1ZIE/Q9H6Nm2WGLIy2mL5jlZHeWzg7b1foNqgVPOdnF0tlh76nRb5XGyMmumM7uMtIE/d5Gkpzs+tPZ9UOaOEi1sFFOdq3o7LojTdBblMySk50V/VYWsk98c/rTWSNpDiqOPgpWRxkA9JGdJCk7wO4z7tLcHLqBRoJicdhfhpEL1g6i2QGqoeA664XSDQgodGDKq7q5I2W71By/JvGElUB2gJrfoZibkpCTAdiS/VcTk/2hB5w97xwaoOLkmBQj9C+gq2+I8d/2/Ejmm6BxWT8JOQMzAmALUVXCC3DX4gNE6va7OMIlIYd3C7h3DLiGZR/FrR1Sjf0Up+6UnKEEIaHjA7DstgPMfMOrXA94MmQI34poEboqmfFSUxw7yJvhxFsbHtT2hKeS5ck7RIjU7oP58h2BmOBcW4yAlEosYNfbeSkRJj8u5qdnC7pMxve/ugRRzVzso+lRIlQCd3APG81A4xLPjk8/kOvP2ZT2TSbCZR3fd6/9LZj6dPY3+yaoLrcLU+fiumn2RAmZMZ0d3Y0kqHbmv1YH2H0hptsHPcYShcTua8aUh3MThoIy2YzTk3SY2o/gKgPaEQXFhunMeP98JuVM6Q4HYOEAT/ihzzEK9wAxbwO/erZBTozKGSqxLvwFqPMw+BOQTBSXjcB6biM4SlGdgmZwAsBvNPSPMi+YqCB2oMraQ/x5dF+EXT8+Ay5AkA/8j+xTqzbfZuqwX5e3drYf4ESZnmEEglVQ97pGVJOhlMRHMaJMYDJtJhTL0DPSF9Qgt54NUVH8zpfhSvVJqD+Ay8iy/rgzZ7HoAp0pne1HVBW30utE962NVe6UWcol7mqD2SqquUKKDA12IWpLaROKqkJc2Z878NUFtHO3BawFwx9CZnVGor6klZQdaHlF3HdhcsTZ/ikvl7lWo798mvoLe1epYMC8ONFAykMa/H+FvMEhwq14+NfkDa8PHV02KSd58MpU1iucVCRZSk+brSw/7279Ad73gRUKnZneaPCr8vRv0e/GwG3mCoWOjKSi62MoVwc/+a8fw89VLHIklLr4OVOjnF089B8//mFXwdAZqWnuPJ/y9tFw9oUbo+eTiibUtsy948rfSTtrXaFrhUN3lJZmdJ5WEdz0XlThyJFO1KNPh0mllDw9oXa0XlwJqRRJpKFbbydjWB4q2EijZk9tJCRXI7txgeJGfqBWon8kIbpNK3S66UpvqsxypKHb/Rt7V+Jf45mFvyS4uSF7UCQRVBBLCCGCKeEXUVsSmpCKSYkQSyOW2BVNUy2x1tLYJ1Emxl61NKqK2nfV6WKnmo6O1tbfdOidjt90bMn9nvMu975ffs4f8D7nfe533+W85zzH2XjUzXwYE0oYKRUkVfc+YePGQSJs5B8NOgfK/PKu+4qoKlDMCh+pPtVpIw3lln6RQyn+QLHz2evnGuxcOj4l9GrEcVfZzFUZ8UR0ebkkmDX6WQsOfNjmaiEXdj+xLHjlHslq7SmPuvemPRUlbSoFBtEybsgxfnBa8rxiTj3Hol+VMiXXrGdyJRwktCuvPB9JsGO+e7vO6Gd1BzdtWSO+2/m7bxcFNaayYJh0SGhlLOPo5YYCkl++uwS3/v20mEfShP5CYZZAWiGD2e41/vdAfUP3MgL/ulYSTEiZjXqTA0X0ZjJtq2sIehDua0XtG7esij5nHxcFA5bb1WTpu/wxsd5t3SciplReT6XdfbyIN4MKsMYvQz9Ncyt6Fnk8/6bhuFUfZit3uL7i7UB0TmH01S6oi8ZguZF8czK/hqXXdlnFg+K8l9An4AZ5+EXhjIVuXHHpNmfgxOQPmdlzLqQ0x3UiJ4tlsGsZfMFOXYNACtD2OywYnrNpvazJgfYDPDWwiYxv/S+T68P+/NcWRIxaLan/J2qFXUu+Cs4jTIeVTBbZ3aqx3+MRjuDQLuRvIok4i3sap52gR2w8a7N+6s3mTEIeYbqmbfdhGD2FNo00jdt+olI3lUvA0yP7Rmtr/AWM63mZbWQHWhSgUIRaRxYxsO7BjeiSELuvMPJpBitMWNJyO4dcx03SNGLE9EPdSAI9pYmy3rlnkmMT90xpOKdjp77TuOfSgBQ2uSxmDm1JIfL7mprm1Zgyi0RRsH0pl05znJrcbaFQt1Ic7jYK7t/U5O4AJaLVXByuGyUHoZea3FHyEXqKBP6R8mzgoyJ17QkzWOUgFJpSl7hFRe5WEyZwTCx0I08b3mVkGOGEMkE09noce5mK3NXH/Z8uGvsNPHWgopN61DUj3ClNwtHX4Ohn1OOuA+79CPHo7+PoOepxNwp2vlKgBHj8jLdEPe5Gw87vlQGPXy7y1eNuM+x8Bxnwg+EoaFkP1ahzg2/k/g5SHEiFf7s+qnGXC7s+Q44DrWAHClTjDt9ma8txoAnswBeqcXcedv0tOQ54wAoUr6vG3Qb4/c0kyYNFqAdNVeNugd3vk3Dy2lTVuFuMer5AlgdT4KQu1bibaPeV+iCc1mxSjLt81PNk+8deZynGHVyG9bYsD7xg7ropxl0w6vhlaS7AweOBinEHlxq3l+ZClJ1PmMwGX2d7S3MBDlyXUow7uBhB3htfpN2XXEaDHwzkPRfEoC6cNOp6V0OaC7DQWGej7rM1pbkAKwMmKMZdkN1/dBez/bd6Njtu14j7fy0cPhu3VYw7OMN9jywPrsE5eC6KcQeXiYfI8iAW9aCeanGUB6jnEbI8gGueY1Tjbinq+Ui7f/mZqnHXHV6pX5LjgAluqzBbNe6mw9x1lOPAX2AHRqnGHV4OFSrHgZ72/vHYzR0+mfrJCXnjZfCqhVE07QfY98ky4GvAOgXOvspxh1fWD5UB/zkMX1856rR7sPMj3STA4w1LNqrHXTKeefkP8eh1cCGYHepx1w3n7o549Nt2q08QYgSxR+FxqEBc/dwcqCB3V3HurorGboljV1OQOsKtzOIs+JWvBqHN3QEVuUsg1EQJDqYsJUBvV5E7zc9eM5hGKCer6KskdwMI3NWvKhCYokqWqSR12hBK/bTAy0U8BbedmtxVpWiQmS+Kgm0fTOHuJTW50yZRJtG1mRhQt/sUVEdFqdPGUGZhyRRTo3KFBLpLVe6caGJdV0RgbiJBWt4QNNW4vidOZR0akLFyXMaC16N3Jc5N4M2zaUCbiACRnCZEedGPuMnzuNYu9HQRH4lzQMTt+G/Zx82mTcTMHf3eT+7i5R/Ps7Zmj0+1fpassLHMNMbB82kTceUs7XqLpbHnEsZMLKeC7zDhofQQpiS12sR5lP2Nh7rJTN3aLWd/pEOZLi6kKNvW2kBfG3pTOxw5c5RbHGFtp2ReShQZrVE7nYwRMYSa9kLv+jHbg5G6Xzm6ZDjmEoAahbRgAknfQ9t769DlS08zHfVnrbTwWLmGKNDgmewK6H5lSNnV4+gIjeczLHXcnXi/ghTka4zla1l29jfCa3QSi/r+OaIqWdUrAjrxBs3V3yHyqnPDfHYNnxfTf6lxDmX17iemDZXzXZ3WQ0nLhMCkwYeiBLYlPL0jui1lf2QRZaWtxf7dskR1Hg4YgpLH2k59cyKwsJo6LbIINM+cYpejgT0E4gwAtVSbM7e6CRq7zvrQYTn5FsH2SjEi25vENuxJB59VR3Fg9NhVbFeJRiMiZDQqe/lEURf+NNEwleZgFz++xnJtFozo89S/1+XbC+9Mtciy0Geef5q/JwFmPZSG04kbxzu/6fpW7fLiYxNPXUop7C+5l+0PT2W1JclphBYBZSRctRjLXC89HsNuIqs9fSRSMN482GDkWSYefvTcJ697YZs6AHmxRuPO0uLzPx5dZHbOrAv0VyKo4SljKx9WlBfIbTrqB0SVm/kZj7yuFzXt396SQf4E1MA2KWs88sz7sstLB1kxT5+8S5bnVqTd1w/2unzynKaiLQN4u0hXwVEVG87/rE/eVn8F/IzNq6wcd67Z+uTNdbW7mxs0bd1nypEXBMT759jbyYUPg5itlNvzEb3YQfZ18Zv/RfKPtlGNPEQ14YA9HZz4/2ht4ELFuKuCPKz+3X7+OT7+xnJBsfDEN0gixwC7Ufek4lnN1mqRhzxKm3bax7dlT7/suWzzVom7rlCm/2v2cO1OEXUU+1eIPXb7OUZMOjdjUWm2dJW10ANGju0P96OLvDRWXS9q/IAG50s9ytSJ+2VHBDn3ojyWDFFQycbUHSruoXx6dQGj+0W/X8QLV/JVYv7uO2DqTQVbMufa3UqSdVPuhbSguAevsEGkaXqCcnY1e9iOuijr7dvKcP0Jlv9iNcnoTUo/z51gpoV7qK2o66F37Lzcn3ns4PN6WTNhhFz/cvNA8rRE2wQ0duqHFn1CGDeviEbI6zQso2gZBKd+5VaTz1w9TPK8S12Gsc3DsTzEOPgU7ocrdviMlR3QuBUOujKP/pBXGa75dUtDx4STy363k6VlMhe8muDKnCq0wV+kqCKjnVAWU7JdfbLkHfVWhlM80aaREnYa7ycNfgMbtewwWib8YjnMHT9IrnBaiy8hlY4SB7+LjdudOOz2zeKZe7G2l0a3r2EJeHIqvgv2iXxJHdchr65Y5spHM8ruzgJPYwzlqm0hYTbnYeSB3dsJZK98SrjGbNB5YjnLR90XeunaxFKGuqeWGOYaj43jKOfzQdIivZOYxoZUWzKYhnYZIiBl/d12s7iqSKGK36VsY7sjq2kUq+dJKfV4iPMefZBX/zILgAlilaPph0xiK7PvHmN6saZZTugZpnHb9wAQs6SKCbmE5vG4H7ipFzkX25z662FNgJmAtI8od+bhC4Cp8Kotu988FIMTF/AgNkwTYwMBuPHsw7sAb+oiNOXCkodO1I1SlY0ckCiyQxawIpl5lHx2ANFjQa2MXXLftAaz5qToZj9r9efWmmf8N4DvWlgXl1LWUMpoou07/anxibgATw1HDModMLU6sj/sngblTr+V3lk+AKCT9SFjcueuP7O9fAhO+mGu0cbkDmi7OpwTIl/uZmQ/7jrrc/chJ0ShLsLHxuTuoj53uzkh9JM3/YzJHdDspREnxHD9kLcxuQOuFbyn8Yb62QHG5G6+Pne8N6bV+m9lJfa7e85dMTbk+X+W2To83ytk3ph4W23on1ECjMldH33ukjkhJpXUs/Fg+XeyFSX1TuYBJAjxIVQtsbEAIAb1qvRb3wGDcndaf2rTuABaldzYJ6BOygfqWHJj7uMlZHk9bodL8FvPBSDLi0c9H6i9ruRgUO6Q3lYcb9sOwNv2cs2g3DkANR/12K+0SDLPbKNyp10HZvcv1sFNSAFRnmG5Q5L5K8ySt5paLLmG5e4gMr1otrGdEAnr6pphuXNCyj28+zCNHY38Lv80LndYT71VPgwjT4ZyteMNzF07KOWPIe+hN1S7YQ4zMHc1sXJQclcmB6w+vLVmYO60idAcPT8gDjsTy2HdY2jusD+txb+U6PjJwzeyYYbmLgxUl2hM6OEBS8L00gzNHdwlpxyc1uO1AE07P2Jw7o7BhQmXsEqY5qlwxr6Dwbkz4SWpryCC7AT5mh2awbnT8vDSDv/uel9KeAY+WuV5hufOAxflsFimdrI2lO8Oiq7WXaHTcLHa/jfaXQ55P5PqsU6PKU6ZY1hWFGUgz27ippCQ01SnvKti6trJLuK5cw8gkWcJCjn57K7xQr9zRH29FFH+9w0Ba/ejQue6iSavu4VqIx/81PdR76fmB0dlkssxy8UJ8b3bKFIRd72UPmK5c4uxsFiFapm9Ni6+H8Mm1nRJhOddvqK3g5vQ0UskeXMtNrez/LVxDh0j2bADcl4QSN4Mm3M3hntfjecQzI/aJq6ssX0VG1O3mNfjm/35HAgYIWzXnWJb6qrU5HO3joA/SrWvRZ0sv7Qpdw359raWQlS1nGe3FfSvDbYhdZO4XO3cX5QffkPEkHfBdtT5NeP5hwjVuP5UzI4701bUuX7A4eWwO2KdOZ4kgjuvZTbijidb8WiAaG/KbRJBXqO6NqFuIU+8TIYm/VARp5XdtjjlLfJh9s+0T45LM3wFkNdBfoehGPZzwX/aO/ufqqswgD83RlwQuMRbSpAiIqKIVzIsEBXxmrw7k9SpUaTpsjFTkqVoIiUybOkyzZZhOIqrgJHInNaEUipds7Q2ZrZ+yMr5ilbLLPvW1stqKuc533POt55z7/MHPM95Ply+55znPC+hS1Ut6rhLArxcf8XoMs0H7XxS1S1rh4xYYpnamQcDzLcM8SlSubAz8RLgOVXCKzSfbecoUvsPkSDjl/eWugbWCebzvoNnK/8Qy/jmtakaBjpfoKA0WfkmZhyXccWoVjNtI3W9+SWtMSyQ2TLOeUcmKVhZjUASwCbDElkk44bRf6vsZUWI3Hw6I6xhJykLdbXcae+vPSuwlgcTLEJnBMp5RHtov8Q1ufuLLKXVuujYUTkhKcchWYeVYevETpxWBrQ7JMXht0gZ9GLvHiy0ipZAK9lJSwm0HUsSXkvdI2Jr8LP2IcWIkfSG8ftn+rDYnpGZK7qCHsNikVccCPFu8+HGQqdw9sI9I6xmZ/9aHjwY94G5kOiOshBx4//BCNpYqalmWQe40xf8U9f5SbDcaSaqc7vvKwsOvZmxrLR1m6m/+hzJaWajXuLJ6HxiTbwcs6d5/R6xvKfkHzl2frVTOwq5z1SyW3CDY+7WQbhgzrJ8WTb3cP7gDubd6ANbXcP50awC+WI7kTG+96tlzKmecRINcp1PcppvWiXk08N1rRvYH5RIaPUxd90Npn36z0pdlpso19brHP72q+j1CB7s5Jm8OwQUSlZ+W9OSlNLNWxuubeh++FLXhyfDFVjhSHaawAxJx+3C7zuzgoG4tKCdDXRi9BXgcwq+pM7uUfQjFzKnZDF6utRK4uhCcpCOtqNfaYLRR+162uywgfbPeUp2sFkZX9Fmh0wDmMB38/sOp3WojTI6Fy435l3es9hOHLw9lNk14e5P3NVBob+gFJdSZocawhpUya84DVW3GeNHF50D9a5YbkZ1NuqHt4UuO1SZVqy58z+qn8E+uuww3aTs1eZ0uzABoSK67DCT1JeaVT4Ec88LJfu5Q7yS9GkxrR2TlV5JlV01wjmB+V9XEepvpcoOU0ouUEs3GFEvvZkqu1K2b74i+u9GbOJU2SGi7UIjDhDdiKKono4RqadCg3htiGNKPE10fdmeDRezcJBt4Tma7LYr/5QjNqPpNNkVsD1zillAzKL8jCa7K2zPBFNuQtiZmYu0Pd6JlpIM1/WAN4bp2B2iJtit7FfRZFehepsFaGCaOK1rBOoNURNuponxNNktYr/xiJr4QdcH7hSmY7eImnie/WZOkx27QbLwKEJ2NIBo5Pgc07EBoibYkyIv02RXxX5dFH24X8E0cYomO0TfYNH8UnakhujzNmIic7aYhdFsCxU02X3E9myMmAVE8PMnmuzi2Z4Jdm5EVNGfpckugP3EmC72ftrOZpdPkx2cYbtWIKL/RURxcBZRdpfZrrlF9Jex9UcSRQevIsqffNT+yz5DlR0icGw0mldfr3PK8WMI59aqvMySfeoBzBh1w2gzqzwRk8t8hCy7VQjvdpu902KaEA4jiw5exuRmTlR2azGMb+iyK8b4l24q7SEcNd2pfG9BLAAAAlhJREFUkS47QJVbf28m3wZVnmJPI8zOjfHQWMivOA9VHhlLGB38iOvp8DOv3u24yv0llNnZcIXWUXxDNuEBZPV7ImV20I1zMomr75oL2RZxBml08Am2xwJHx6mRvkil02izA+yYikD0FIqSWViVccTZocem2TNwbYhy0e3gdhJHB9GDsK4a7YhPexZHn99O6uwwQby//8n2spqMXInBaysijw5G8jTfS/i1t8hAwUYOVcZF+uyghsdhI2H1TV4Ywp9awaWoTgN0cC9nY+OIhrev62wUXrBrMp8WsVek/43wD0oJq0uZ/v6fA5Wjiz9uPs3fAu9bLdBB3EDDlIQNHZsZY7Ibt3+nHuysbW78h3Rogg4CtlmNbtBiXdhBfpDF7OaAPjLFWnRFGqEDh6+V6O58Wid2UHKbheymgl4y0zp0F0A3WW4Vuv19tWMXvdsadHe1gH5yMskKdH2yQUf51Ir94j3QUzbZlaObArqK8outG/SVIWrRLQ0ALzxzkmwDraVJ3WDhbj/QXOb1U4SuGfSXE5NVkAvrAk+QWgUTSiNHgWeI/AmlK+4Hj5FpUgeq2g+HgwdJ/Xx56J68CJ4l4RlhktBdGw0eJ8UbZZDLfAE8Ufy6YkTJRS10gIdKdEa6CLmgDY+DB4triumpvv7XWsDDxVUeaYZc4DuJ4BVwNK7kJXf0gMvL7a/j3qGxeHA5C857if1r061MQT2kFXbkhXppXS/3lSX3WuwU2Xqp2Evp5pKWvffCjOuiVOmTvjh3ttZLByPr68/PLZt4dV951UznvD0lem8MvwEXaREllg2JygAAAABJRU5ErkJggg==;strokeColor=#00984A;fontFamily=Helvetica;fontSize=12;aspect=fixed;" vertex="1" parent="1">
          <mxGeometry x="1366" y="352" width="73.83" height="120" as="geometry" />
        </mxCell>
        <mxCell id="4NnvcPufkdFd_n3cXTJO-3" value="&amp;lt;&amp;lt;get: consultar se chave pix existe&amp;gt;&amp;gt;&lt;div&gt;&amp;lt;&amp;lt;post: cadastrar chave pix&amp;gt;&amp;gt;&lt;/div&gt;&lt;div&gt;&amp;lt;&amp;lt;insert: cadastrar chave pix&amp;gt;&amp;gt;&lt;/div&gt;" style="edgeStyle=orthogonalEdgeStyle;rounded=0;orthogonalLoop=1;jettySize=auto;html=1;entryX=0;entryY=0.25;entryDx=0;entryDy=0;exitX=1;exitY=0.25;exitDx=0;exitDy=0;" edge="1" parent="1" source="4NnvcPufkdFd_n3cXTJO-27" target="4NnvcPufkdFd_n3cXTJO-32">
          <mxGeometry relative="1" as="geometry">
            <mxPoint x="460" y="259" as="sourcePoint" />
          </mxGeometry>
        </mxCell>
        <mxCell id="4NnvcPufkdFd_n3cXTJO-4" value="&lt;div&gt;bank_accounts&lt;/div&gt;pix_keys&lt;div&gt;transactions&lt;/div&gt;" style="text;html=1;align=center;verticalAlign=middle;resizable=0;points=[];autosize=1;strokeColor=none;fillColor=none;" vertex="1" parent="1">
          <mxGeometry x="182.5" y="534" width="100" height="60" as="geometry" />
        </mxCell>
        <mxCell id="4NnvcPufkdFd_n3cXTJO-5" value="contas&lt;div&gt;chaves&lt;div&gt;transacoes&lt;/div&gt;&lt;/div&gt;" style="text;html=1;align=center;verticalAlign=middle;resizable=0;points=[];autosize=1;strokeColor=none;fillColor=none;" vertex="1" parent="1">
          <mxGeometry x="1745.5" y="529" width="80" height="60" as="geometry" />
        </mxCell>
        <mxCell id="4NnvcPufkdFd_n3cXTJO-6" value="&lt;div&gt;bancos&lt;/div&gt;&lt;div&gt;contas&lt;/div&gt;chaves_pix&lt;div&gt;transacoes&lt;/div&gt;" style="text;html=1;align=center;verticalAlign=middle;resizable=0;points=[];autosize=1;strokeColor=none;fillColor=none;" vertex="1" parent="1">
          <mxGeometry x="972.5" y="534" width="80" height="70" as="geometry" />
        </mxCell>
        <mxCell id="4NnvcPufkdFd_n3cXTJO-7" value="Server gRPC" style="text;html=1;align=center;verticalAlign=middle;resizable=0;points=[];autosize=1;strokeColor=none;fillColor=none;fontStyle=1;fontSize=16;" vertex="1" parent="1">
          <mxGeometry x="952.5" y="229" width="120" height="30" as="geometry" />
        </mxCell>
        <mxCell id="4NnvcPufkdFd_n3cXTJO-8" value="&amp;lt;&amp;lt;publish Transactions&amp;gt;&amp;gt;" style="edgeStyle=orthogonalEdgeStyle;rounded=0;orthogonalLoop=1;jettySize=auto;html=1;entryX=0;entryY=0.25;entryDx=0;entryDy=0;exitX=1.01;exitY=0.435;exitDx=0;exitDy=0;exitPerimeter=0;" edge="1" parent="1" source="4NnvcPufkdFd_n3cXTJO-32" target="4NnvcPufkdFd_n3cXTJO-2">
          <mxGeometry x="-0.0052" relative="1" as="geometry">
            <mxPoint as="offset" />
          </mxGeometry>
        </mxCell>
        <mxCell id="4NnvcPufkdFd_n3cXTJO-9" value="&amp;lt;&amp;lt;consume Transactions&amp;gt;&amp;gt;" style="edgeStyle=orthogonalEdgeStyle;rounded=0;orthogonalLoop=1;jettySize=auto;html=1;entryX=-0.004;entryY=0.435;entryDx=0;entryDy=0;entryPerimeter=0;exitX=1;exitY=0.25;exitDx=0;exitDy=0;" edge="1" parent="1" source="4NnvcPufkdFd_n3cXTJO-2" target="4NnvcPufkdFd_n3cXTJO-37">
          <mxGeometry x="0.0046" relative="1" as="geometry">
            <mxPoint as="offset" />
          </mxGeometry>
        </mxCell>
        <mxCell id="4NnvcPufkdFd_n3cXTJO-10" value="&amp;lt;&amp;lt;publish Transaction_Confirmation&amp;gt;&amp;gt;" style="edgeStyle=orthogonalEdgeStyle;rounded=0;orthogonalLoop=1;jettySize=auto;html=1;exitX=0.001;exitY=0.55;exitDx=0;exitDy=0;exitPerimeter=0;" edge="1" parent="1" source="4NnvcPufkdFd_n3cXTJO-37" target="4NnvcPufkdFd_n3cXTJO-2">
          <mxGeometry relative="1" as="geometry" />
        </mxCell>
        <mxCell id="4NnvcPufkdFd_n3cXTJO-11" value="&amp;lt;&amp;lt;consume Transactions&amp;gt;&amp;gt;" style="edgeStyle=orthogonalEdgeStyle;rounded=0;orthogonalLoop=1;jettySize=auto;html=1;exitX=1;exitY=0.25;exitDx=0;exitDy=0;" edge="1" parent="1" source="4NnvcPufkdFd_n3cXTJO-13" target="4NnvcPufkdFd_n3cXTJO-32">
          <mxGeometry x="0.0022" relative="1" as="geometry">
            <mxPoint as="offset" />
          </mxGeometry>
        </mxCell>
        <mxCell id="4NnvcPufkdFd_n3cXTJO-12" value="&amp;lt;&amp;lt;consumer Transaction_Confirmation&amp;gt;&amp;gt;" style="edgeStyle=orthogonalEdgeStyle;rounded=0;orthogonalLoop=1;jettySize=auto;html=1;exitX=1;exitY=0.75;exitDx=0;exitDy=0;entryX=0.004;entryY=0.731;entryDx=0;entryDy=0;entryPerimeter=0;" edge="1" parent="1" source="4NnvcPufkdFd_n3cXTJO-13" target="4NnvcPufkdFd_n3cXTJO-32">
          <mxGeometry x="0.001" relative="1" as="geometry">
            <mxPoint x="910" y="459" as="targetPoint" />
            <mxPoint as="offset" />
          </mxGeometry>
        </mxCell>
        <mxCell id="4NnvcPufkdFd_n3cXTJO-13" value="Kafka" style="shape=image;verticalLabelPosition=bottom;labelBackgroundColor=#ffffff;verticalAlign=top;imageAspect=0;image=data:image/png,iVBORw0KGgoAAAANSUhEUgAAATsAAAIACAMAAADKVzsGAAAABGdBTUEAALGPC/xhBQAAAAFzUkdCAK7OHOkAAAMAUExURUdwTAAAAAAAAAAAAAAAAAAAAAAAAAAAAAAAAAAAAAAAAAAAAAAAAAAAAAAAAAAAAAAAAAAAAAAAAAAAAAAAAAAAAAAAAAAAAAAAAAAAAAAAAAAAAAAAAAAAAAAAAAAAAAAAAAAAAAAAAAAAAAAAAAAAAAAAAAAAAAAAAAAAAAAAAAAAAAAAAAAAAAAAAAAAAAAAAAAAAAAAAAAAAAAAAAAAAAAAAAAAAAAAAAAAAAAAAAAAAAAAAAAAAAAAAAAAAAAAAAAAAAAAAAAAAAAAAAAAAAAAAAAAAAAAAAAAAAAAAAAAAAAAAAAAAAAAAAAAAAAAAAAAAAAAAAAAAAAAAAAAAAAAAAAAAAAAAAAAAAAAAAAAAAAAAAAAAAAAAAAAAAAAAAAAAAAAAAAAAAAAAAAAAAAAAAAAAAAAAAAAAAAAAAAAAAAAAAAAAAAAAAAAAAAAAAAAAAAAAAAAAAAAAAAAAAAAAAAAAAAAAAAAAAAAAAAAAAAAAAAAAAAAAAAAAAAAAAAAAAAAAAAAAAAAAAAAAAAAAAAAAAAAAAAAAAAAAAAAAAAAAAAAAAAAAAAAAAAAAAAAAAAAAAAAAAAAAAAAAAAAAAAAAAAAAAAAAAAAAAAAAAAAAAAAAAAAAAAAAAAAAAAAAAAAAAAAAAAAAAAAAAAAAAAAAAAAAAAAAAAAAAAAAAAAAAAAAAAAAAAAAAAAAAAAAAAAAAAAAAAAAAAAAAAAAAAAAAAAAAAAAAAAAAAAAAAAAAAAAAAAAAAAAAAAAAAAAAAAAAAAAAAAAAAAAAAAAAAAAAAAAAAAAAAAAAAAAAAAAAAAAAAAAAAAAAAAAAAAAAAAAAAAAAAAAAAAAAAAAAAAAAAAAAAAAAAAAAAAAAAAAAAAAAAAAAAAAAAAAAAAAAAAAAAAAAAAAAAAAAAAAAAAAAAAAAAAAAAAAAAAAAAAAAAAAAAAAAAAAAAAAAAAAAAAAAAAAAAAAAAAAAAAAAAAAAAAAAAAAAAAAAAAAAAAAAAAAAAAAAAAANHuELwAAAD/dFJOUwADzAk01GwB/v0C/PX7BAgH+AX6Bvbp+Qv39PMM5vEK5c7qD+4dDt1xIujk7N6h72cajPBAnrYUFRkY8nqC4B/A37kQbhPSHutJ7VpKMUPjidZbHGq8F1zLbynismIRLC2GLjZRVZHQnMQmfBtPmJqO2hZ5ZOelfaxWiKqEyMUgsDhtdrsvfzfRk9sjTT+zlQ2dYUjHElifojJzv7Smh8bN2ConY6k9z2CZ16BlgSSXg65d1VBCwyh3THvTVJS4dZswyWmoil8zj0aQIU47RNlTNWvKPHjhwZaxOrclrWZXQX4rjas5p766r9xSgD6kR2hytYu9koVFWXB0S8KjXiBJhLsAACAASURBVHja7J13WFVHFsAfPpBXQECpUkQEQQEbYiVgQaOIIhoVBFEsKGJAxd4FiYjYjbFHXBezatYejcYao9FEY6LRWNeYjZpYsm5ii/vtRL/99tvEBebMnLkX5j7O/++U373vzsyZmXN0OnHSe97xe8MupcdHjo2JqZ/0xdR/Nki9/uQzW12llCktdn3Sy5WUKK3fXdDns0pCJYu+86MiQhHfzcveriT1itQaMsGFgMR8u1HzSl7/k5mLPAmD2CcXWlVCeymOG/IJswTvq/zv6upk1CdcYnfgdcsm57XPn3CL24GWlkvOdN2VoMRlm7uFoiveSNAS3MMiP3RZBiJC7ljehDnWlwgSu2jLWq7pFxCBcqWVBaHbY0OEit8Ti0F3tzURLMYIC/nfvkYUkAl6S1iCjSOKyNHRmke3sA1RSEL/qnF0KeeIYuK9XtPomucTBaXTEQ2ja1+bKCp+fbWbNVlKFBbfehpFV+0KUVwKNJqP/wtRQaY5aBHdQ6KKrNEguhtmddiRIM2h6+mqEjpif19j6ExtiGoSrLEttGyiolzTFLquNdRkRxZraWZXW1V0pKGGEsl7icoyQTPoolzUZkditcJusuroSFF1baC7zxN8SHr4pIzEqtmpW3sFW/AMeSpzBjhr2R8+9nVjmzAfIYipqwV0HzKOkZmXS9IyfEokm563tMCOaX7iG1Tq6RzT3zqyaApLkR/dEoZ4fZ45lqXK9i7Lu5chP7tZDOkj6pS21mM3sLb6jrKjy4O/dB9B9FkHghWOsZhkce25MIV1roE1So7OHXr0pB34BKftp1B4J+RmtwEY5i2WdQB0eZwpN7tVsCi3s92XyIBp9Zd6YdbSCAqyDeuQOMcCMgI5oBAD6zCn8JuBFDeQmV0v0D0Jjm96c1CCIEbiq1PuoJlsIo/qYtDX4Ht52RVC4ptq4tK9FaL7fXnZnYLc6VzBp7s9ZMN3mrzsEgDhZfEqvw5Q7iTtmtbdHrCLz30txzkJAO+8rOwgyfblyk6AfpWVXTQguBX86vU+ij6a8pVh9Nj2Y/SH0/UPlZUdYJMnF6O/KWDeLevsuBM9NtT5YFs/uoEoOdF50SOLxFkAbJo3lZPdTXpk7+AsfKzZI1FP6JFtwVkYSLcQISe7ZfTIinEW9PSEwHdysqtKZ9cCaaKtVlN49Mx4a+Xzg5fkZLeNGlgc1gR9v/GgnOy6UwPbhDWxmWpilZzsRlIDS8CaOKDVDN5aamD5WBNZVBO3tTpWhGJN3KKamC8nuyD6RWusidX0AwdysqMnxY2OSBP0c5HD5GTXgz43vomzYFuTaiFNTnaf09mdxVkIoFuYIie7rvTIXsNZABwDbyQnuzr0yNKVnkESWatsxVAjq4GrOTmUzm6upOwAW9ufY/S3pFduNFeTlB0gJf53jP5DRPnZd3kJoFibU3uEfsBdlXaysnsO2NvO4Vc/myg+kJefdAAEl8R/Jng+QP0SWdnpRgGi28CrHHLrxdBeWnbLAeFF1uJUDjlyHC8tOsj+KSGpfLrvQnQPk5ddPdBRba6idV6Q03fkqbzsdKAbrxt5Soc9AD0WmS9vw8rxctxdGgNSfEVidJBUykvpxzy1g1UNuS4zOx3sorW5kE3rnhCQWmNvqdl1h714LkxHvaIuwLRelBqdbi6wSYXHYLjOAdD2DbL3BWkHjNP8MVTjjTCgSldnydntAl/vf+AF0WcaD659mSo5Op1VHBhe0WzApw5e9sKsXA8ufd6uZ58+OJiwKTDO+0KBzbRL4VO2nFGg22YEvMaHIYtSbdI5wg6ubYYi2BxP504uKvnV91yauXi4UGMLQ+DhkpiMMq4hV+9XwFKYx1o4N9uuERedaB/ZY8cFzoxyWQImYWtLeXSjn7EVhNouGtzlNOD4bpga1FOQ0Vqs1Xmn5ux5VUfjPqvt2ZQY+wsl1/MtpidnWNXFUYjdIMIsvuMi7t4crX/xhetwNTYoq4hdwziR5HYnsxe2DvlZxMvn0JZwir0b9y/FNVExdeGs9Go/bgDe+nOiuqwV9pmbGM/vheHYHrQDE9RGVyCqm8B9ZHVhcxa2BVNjH5XZdRND7nUBVV59ViKPJuSoi07MjWNTtKcQb/JxM03TbTXR1RfSPGX4u6L8Mf+MmrC0dFUPnXG3CHRbagp0aSiq/ddJg2rs7gkgV1fw8OaCurGZqha6XiY8ur5Fwt0ahvjfWq1SB91YAUvxQk8FHEtAdFZPiVcDXc1BeHTRRkVcu4BYYkd5K4/OvjMeXROlnAtDFC9Y4ak4u/fwszoF26i5IJ7sEjeF0eGrA5iWK+mf2y5+zzp7KIruMX7pH67sw3VDvHnd7BR07Gv8t+6A0h8VF8Q373xrpbwyfIVHN1750cwHkdQbVF8Zn8zH8eh6EBUkqTG/gwHrlPDI/yQe3WU3NdiRdYiW9Ppj4v3pKKBpbytvoo6garZki564/9kdj67av1TLVryB8XNepEhXnFaKSDo9Vi9L5pSHyvG8I3CRvV4EumKjeuzITj3K111+YtxwyxByVXFhJFFT5uC8bb5VRCfkowPFbOt8o+6OiuE00t8BvbAutH0q6ODWeYO67Eg8+szFm6Mw9hseEnPo48UYu5OoLePRTlst28hr3D+1g7BzEzmqoyM1RwjwewlXK+7Aqu7CyOnejuEZpHZun5Ma8XDvtsxmBTxj9AMhrlsvYPTduOqsSSdQmDPFPjOi+/++crL7vPHprPwMR8Q473x3Brwjd5WVI3RCpSVbb2H71RNLOu7SKrEjG7xkYQF06NFgLN1ejfRvxR7pfSmPWCL2OFD6GfCmV5jgDRIYg21eblmHk40J3Ze468RLC4ZktjGz7J6Rp48ysPtBbBxVyjBlo1NG7jGkj6iviu2WMPiDuCo7Owfw4tCQCqmsHwCfN2yVnd0OaKQhPwHnrJPAc7yFkrP7ALr+gw9Sx6GThutys9sDDHM/yzZDoRNMaYLc7KbAohzFVj79Q+Cb9yep2cHuWXlPZ1T7bxi7b2VmtwKWJGdvyQQ7bxgvM7v3ldqcMcGSk1clZncOEuAEHs2NQQmOaHnZNYdkP8L4jpK+B2HXTF52EyHx8dbog8wc7apJyy4NEJ4Nb4+zL9VNpqjNrgogui7c2mcAtAfJyk4PuNH8I39rvZkAdpNlZWet8EgIyOYVycquHyBTjbmctoWu36yXlB2gqDmq0VQKYFl7QlJ2yfTQdqAMAEo6TZSUHWBnC7cn94xuYK+k7OgHx79QPNWwVU52gC6v4TgLVh7KflDLj10UnV0u0gT9YHq6nOxO0Nm9iTRxTL0JnrrsutHZYUsj0ffMXOVkByh6gy1M9Cs9wyUnu8F0dnWQJugrCw852QGyd1ZIE/Q9H6Nm2WGLIy2mL5jlZHeWzg7b1foNqgVPOdnF0tlh76nRb5XGyMmumM7uMtIE/d5Gkpzs+tPZ9UOaOEi1sFFOdq3o7LojTdBblMySk50V/VYWsk98c/rTWSNpDiqOPgpWRxkA9JGdJCk7wO4z7tLcHLqBRoJicdhfhpEL1g6i2QGqoeA664XSDQgodGDKq7q5I2W71By/JvGElUB2gJrfoZibkpCTAdiS/VcTk/2hB5w97xwaoOLkmBQj9C+gq2+I8d/2/Ejmm6BxWT8JOQMzAmALUVXCC3DX4gNE6va7OMIlIYd3C7h3DLiGZR/FrR1Sjf0Up+6UnKEEIaHjA7DstgPMfMOrXA94MmQI34poEboqmfFSUxw7yJvhxFsbHtT2hKeS5ck7RIjU7oP58h2BmOBcW4yAlEosYNfbeSkRJj8u5qdnC7pMxve/ugRRzVzso+lRIlQCd3APG81A4xLPjk8/kOvP2ZT2TSbCZR3fd6/9LZj6dPY3+yaoLrcLU+fiumn2RAmZMZ0d3Y0kqHbmv1YH2H0hptsHPcYShcTua8aUh3MThoIy2YzTk3SY2o/gKgPaEQXFhunMeP98JuVM6Q4HYOEAT/ihzzEK9wAxbwO/erZBTozKGSqxLvwFqPMw+BOQTBSXjcB6biM4SlGdgmZwAsBvNPSPMi+YqCB2oMraQ/x5dF+EXT8+Ay5AkA/8j+xTqzbfZuqwX5e3drYf4ESZnmEEglVQ97pGVJOhlMRHMaJMYDJtJhTL0DPSF9Qgt54NUVH8zpfhSvVJqD+Ay8iy/rgzZ7HoAp0pne1HVBW30utE962NVe6UWcol7mqD2SqquUKKDA12IWpLaROKqkJc2Z878NUFtHO3BawFwx9CZnVGor6klZQdaHlF3HdhcsTZ/ikvl7lWo798mvoLe1epYMC8ONFAykMa/H+FvMEhwq14+NfkDa8PHV02KSd58MpU1iucVCRZSk+brSw/7279Ad73gRUKnZneaPCr8vRv0e/GwG3mCoWOjKSi62MoVwc/+a8fw89VLHIklLr4OVOjnF089B8//mFXwdAZqWnuPJ/y9tFw9oUbo+eTiibUtsy948rfSTtrXaFrhUN3lJZmdJ5WEdz0XlThyJFO1KNPh0mllDw9oXa0XlwJqRRJpKFbbydjWB4q2EijZk9tJCRXI7txgeJGfqBWon8kIbpNK3S66UpvqsxypKHb/Rt7V+Jf45mFvyS4uSF7UCQRVBBLCCGCKeEXUVsSmpCKSYkQSyOW2BVNUy2x1tLYJ1Emxl61NKqK2nfV6WKnmo6O1tbfdOidjt90bMn9nvMu975ffs4f8D7nfe533+W85zzH2XjUzXwYE0oYKRUkVfc+YePGQSJs5B8NOgfK/PKu+4qoKlDMCh+pPtVpIw3lln6RQyn+QLHz2evnGuxcOj4l9GrEcVfZzFUZ8UR0ebkkmDX6WQsOfNjmaiEXdj+xLHjlHslq7SmPuvemPRUlbSoFBtEybsgxfnBa8rxiTj3Hol+VMiXXrGdyJRwktCuvPB9JsGO+e7vO6Gd1BzdtWSO+2/m7bxcFNaayYJh0SGhlLOPo5YYCkl++uwS3/v20mEfShP5CYZZAWiGD2e41/vdAfUP3MgL/ulYSTEiZjXqTA0X0ZjJtq2sIehDua0XtG7esij5nHxcFA5bb1WTpu/wxsd5t3SciplReT6XdfbyIN4MKsMYvQz9Ncyt6Fnk8/6bhuFUfZit3uL7i7UB0TmH01S6oi8ZguZF8czK/hqXXdlnFg+K8l9An4AZ5+EXhjIVuXHHpNmfgxOQPmdlzLqQ0x3UiJ4tlsGsZfMFOXYNACtD2OywYnrNpvazJgfYDPDWwiYxv/S+T68P+/NcWRIxaLan/J2qFXUu+Cs4jTIeVTBbZ3aqx3+MRjuDQLuRvIok4i3sap52gR2w8a7N+6s3mTEIeYbqmbfdhGD2FNo00jdt+olI3lUvA0yP7Rmtr/AWM63mZbWQHWhSgUIRaRxYxsO7BjeiSELuvMPJpBitMWNJyO4dcx03SNGLE9EPdSAI9pYmy3rlnkmMT90xpOKdjp77TuOfSgBQ2uSxmDm1JIfL7mprm1Zgyi0RRsH0pl05znJrcbaFQt1Ic7jYK7t/U5O4AJaLVXByuGyUHoZea3FHyEXqKBP6R8mzgoyJ17QkzWOUgFJpSl7hFRe5WEyZwTCx0I08b3mVkGOGEMkE09noce5mK3NXH/Z8uGvsNPHWgopN61DUj3ClNwtHX4Ohn1OOuA+79CPHo7+PoOepxNwp2vlKgBHj8jLdEPe5Gw87vlQGPXy7y1eNuM+x8Bxnwg+EoaFkP1ahzg2/k/g5SHEiFf7s+qnGXC7s+Q44DrWAHClTjDt9ma8txoAnswBeqcXcedv0tOQ54wAoUr6vG3Qb4/c0kyYNFqAdNVeNugd3vk3Dy2lTVuFuMer5AlgdT4KQu1bibaPeV+iCc1mxSjLt81PNk+8deZynGHVyG9bYsD7xg7ropxl0w6vhlaS7AweOBinEHlxq3l+ZClJ1PmMwGX2d7S3MBDlyXUow7uBhB3htfpN2XXEaDHwzkPRfEoC6cNOp6V0OaC7DQWGej7rM1pbkAKwMmKMZdkN1/dBez/bd6Njtu14j7fy0cPhu3VYw7OMN9jywPrsE5eC6KcQeXiYfI8iAW9aCeanGUB6jnEbI8gGueY1Tjbinq+Ui7f/mZqnHXHV6pX5LjgAluqzBbNe6mw9x1lOPAX2AHRqnGHV4OFSrHgZ72/vHYzR0+mfrJCXnjZfCqhVE07QfY98ky4GvAOgXOvspxh1fWD5UB/zkMX1856rR7sPMj3STA4w1LNqrHXTKeefkP8eh1cCGYHepx1w3n7o549Nt2q08QYgSxR+FxqEBc/dwcqCB3V3HurorGboljV1OQOsKtzOIs+JWvBqHN3QEVuUsg1EQJDqYsJUBvV5E7zc9eM5hGKCer6KskdwMI3NWvKhCYokqWqSR12hBK/bTAy0U8BbedmtxVpWiQmS+Kgm0fTOHuJTW50yZRJtG1mRhQt/sUVEdFqdPGUGZhyRRTo3KFBLpLVe6caGJdV0RgbiJBWt4QNNW4vidOZR0akLFyXMaC16N3Jc5N4M2zaUCbiACRnCZEedGPuMnzuNYu9HQRH4lzQMTt+G/Zx82mTcTMHf3eT+7i5R/Ps7Zmj0+1fpassLHMNMbB82kTceUs7XqLpbHnEsZMLKeC7zDhofQQpiS12sR5lP2Nh7rJTN3aLWd/pEOZLi6kKNvW2kBfG3pTOxw5c5RbHGFtp2ReShQZrVE7nYwRMYSa9kLv+jHbg5G6Xzm6ZDjmEoAahbRgAknfQ9t769DlS08zHfVnrbTwWLmGKNDgmewK6H5lSNnV4+gIjeczLHXcnXi/ghTka4zla1l29jfCa3QSi/r+OaIqWdUrAjrxBs3V3yHyqnPDfHYNnxfTf6lxDmX17iemDZXzXZ3WQ0nLhMCkwYeiBLYlPL0jui1lf2QRZaWtxf7dskR1Hg4YgpLH2k59cyKwsJo6LbIINM+cYpejgT0E4gwAtVSbM7e6CRq7zvrQYTn5FsH2SjEi25vENuxJB59VR3Fg9NhVbFeJRiMiZDQqe/lEURf+NNEwleZgFz++xnJtFozo89S/1+XbC+9Mtciy0Geef5q/JwFmPZSG04kbxzu/6fpW7fLiYxNPXUop7C+5l+0PT2W1JclphBYBZSRctRjLXC89HsNuIqs9fSRSMN482GDkWSYefvTcJ697YZs6AHmxRuPO0uLzPx5dZHbOrAv0VyKo4SljKx9WlBfIbTrqB0SVm/kZj7yuFzXt396SQf4E1MA2KWs88sz7sstLB1kxT5+8S5bnVqTd1w/2unzynKaiLQN4u0hXwVEVG87/rE/eVn8F/IzNq6wcd67Z+uTNdbW7mxs0bd1nypEXBMT759jbyYUPg5itlNvzEb3YQfZ18Zv/RfKPtlGNPEQ14YA9HZz4/2ht4ELFuKuCPKz+3X7+OT7+xnJBsfDEN0gixwC7Ufek4lnN1mqRhzxKm3bax7dlT7/suWzzVom7rlCm/2v2cO1OEXUU+1eIPXb7OUZMOjdjUWm2dJW10ANGju0P96OLvDRWXS9q/IAG50s9ytSJ+2VHBDn3ojyWDFFQycbUHSruoXx6dQGj+0W/X8QLV/JVYv7uO2DqTQVbMufa3UqSdVPuhbSguAevsEGkaXqCcnY1e9iOuijr7dvKcP0Jlv9iNcnoTUo/z51gpoV7qK2o66F37Lzcn3ns4PN6WTNhhFz/cvNA8rRE2wQ0duqHFn1CGDeviEbI6zQso2gZBKd+5VaTz1w9TPK8S12Gsc3DsTzEOPgU7ocrdviMlR3QuBUOujKP/pBXGa75dUtDx4STy363k6VlMhe8muDKnCq0wV+kqCKjnVAWU7JdfbLkHfVWhlM80aaREnYa7ycNfgMbtewwWib8YjnMHT9IrnBaiy8hlY4SB7+LjdudOOz2zeKZe7G2l0a3r2EJeHIqvgv2iXxJHdchr65Y5spHM8ruzgJPYwzlqm0hYTbnYeSB3dsJZK98SrjGbNB5YjnLR90XeunaxFKGuqeWGOYaj43jKOfzQdIivZOYxoZUWzKYhnYZIiBl/d12s7iqSKGK36VsY7sjq2kUq+dJKfV4iPMefZBX/zILgAlilaPph0xiK7PvHmN6saZZTugZpnHb9wAQs6SKCbmE5vG4H7ipFzkX25z662FNgJmAtI8od+bhC4Cp8Kotu988FIMTF/AgNkwTYwMBuPHsw7sAb+oiNOXCkodO1I1SlY0ckCiyQxawIpl5lHx2ANFjQa2MXXLftAaz5qToZj9r9efWmmf8N4DvWlgXl1LWUMpoou07/anxibgATw1HDModMLU6sj/sngblTr+V3lk+AKCT9SFjcueuP7O9fAhO+mGu0cbkDmi7OpwTIl/uZmQ/7jrrc/chJ0ShLsLHxuTuoj53uzkh9JM3/YzJHdDspREnxHD9kLcxuQOuFbyn8Yb62QHG5G6+Pne8N6bV+m9lJfa7e85dMTbk+X+W2To83ytk3ph4W23on1ECjMldH33ukjkhJpXUs/Fg+XeyFSX1TuYBJAjxIVQtsbEAIAb1qvRb3wGDcndaf2rTuABaldzYJ6BOygfqWHJj7uMlZHk9bodL8FvPBSDLi0c9H6i9ruRgUO6Q3lYcb9sOwNv2cs2g3DkANR/12K+0SDLPbKNyp10HZvcv1sFNSAFRnmG5Q5L5K8ySt5paLLmG5e4gMr1otrGdEAnr6pphuXNCyj28+zCNHY38Lv80LndYT71VPgwjT4ZyteMNzF07KOWPIe+hN1S7YQ4zMHc1sXJQclcmB6w+vLVmYO60idAcPT8gDjsTy2HdY2jusD+txb+U6PjJwzeyYYbmLgxUl2hM6OEBS8L00gzNHdwlpxyc1uO1AE07P2Jw7o7BhQmXsEqY5qlwxr6Dwbkz4SWpryCC7AT5mh2awbnT8vDSDv/uel9KeAY+WuV5hufOAxflsFimdrI2lO8Oiq7WXaHTcLHa/jfaXQ55P5PqsU6PKU6ZY1hWFGUgz27ippCQ01SnvKti6trJLuK5cw8gkWcJCjn57K7xQr9zRH29FFH+9w0Ba/ejQue6iSavu4VqIx/81PdR76fmB0dlkssxy8UJ8b3bKFIRd72UPmK5c4uxsFiFapm9Ni6+H8Mm1nRJhOddvqK3g5vQ0UskeXMtNrez/LVxDh0j2bADcl4QSN4Mm3M3hntfjecQzI/aJq6ssX0VG1O3mNfjm/35HAgYIWzXnWJb6qrU5HO3joA/SrWvRZ0sv7Qpdw359raWQlS1nGe3FfSvDbYhdZO4XO3cX5QffkPEkHfBdtT5NeP5hwjVuP5UzI4701bUuX7A4eWwO2KdOZ4kgjuvZTbijidb8WiAaG/KbRJBXqO6NqFuIU+8TIYm/VARp5XdtjjlLfJh9s+0T45LM3wFkNdBfoehGPZzwX/aO/ufqqswgD83RlwQuMRbSpAiIqKIVzIsEBXxmrw7k9SpUaTpsjFTkqVoIiUybOkyzZZhOIqrgJHInNaEUipds7Q2ZrZ+yMr5ilbLLPvW1stqKuc533POt55z7/MHPM95Ply+55znPC+hS1Ut6rhLArxcf8XoMs0H7XxS1S1rh4xYYpnamQcDzLcM8SlSubAz8RLgOVXCKzSfbecoUvsPkSDjl/eWugbWCebzvoNnK/8Qy/jmtakaBjpfoKA0WfkmZhyXccWoVjNtI3W9+SWtMSyQ2TLOeUcmKVhZjUASwCbDElkk44bRf6vsZUWI3Hw6I6xhJykLdbXcae+vPSuwlgcTLEJnBMp5RHtov8Q1ufuLLKXVuujYUTkhKcchWYeVYevETpxWBrQ7JMXht0gZ9GLvHiy0ipZAK9lJSwm0HUsSXkvdI2Jr8LP2IcWIkfSG8ftn+rDYnpGZK7qCHsNikVccCPFu8+HGQqdw9sI9I6xmZ/9aHjwY94G5kOiOshBx4//BCNpYqalmWQe40xf8U9f5SbDcaSaqc7vvKwsOvZmxrLR1m6m/+hzJaWajXuLJ6HxiTbwcs6d5/R6xvKfkHzl2frVTOwq5z1SyW3CDY+7WQbhgzrJ8WTb3cP7gDubd6ANbXcP50awC+WI7kTG+96tlzKmecRINcp1PcppvWiXk08N1rRvYH5RIaPUxd90Npn36z0pdlpso19brHP72q+j1CB7s5Jm8OwQUSlZ+W9OSlNLNWxuubeh++FLXhyfDFVjhSHaawAxJx+3C7zuzgoG4tKCdDXRi9BXgcwq+pM7uUfQjFzKnZDF6utRK4uhCcpCOtqNfaYLRR+162uywgfbPeUp2sFkZX9Fmh0wDmMB38/sOp3WojTI6Fy435l3es9hOHLw9lNk14e5P3NVBob+gFJdSZocawhpUya84DVW3GeNHF50D9a5YbkZ1NuqHt4UuO1SZVqy58z+qn8E+uuww3aTs1eZ0uzABoSK67DCT1JeaVT4Ec88LJfu5Q7yS9GkxrR2TlV5JlV01wjmB+V9XEepvpcoOU0ouUEs3GFEvvZkqu1K2b74i+u9GbOJU2SGi7UIjDhDdiKKono4RqadCg3htiGNKPE10fdmeDRezcJBt4Tma7LYr/5QjNqPpNNkVsD1zillAzKL8jCa7K2zPBFNuQtiZmYu0Pd6JlpIM1/WAN4bp2B2iJtit7FfRZFehepsFaGCaOK1rBOoNURNuponxNNktYr/xiJr4QdcH7hSmY7eImnie/WZOkx27QbLwKEJ2NIBo5Pgc07EBoibYkyIv02RXxX5dFH24X8E0cYomO0TfYNH8UnakhujzNmIic7aYhdFsCxU02X3E9myMmAVE8PMnmuzi2Z4Jdm5EVNGfpckugP3EmC72ftrOZpdPkx2cYbtWIKL/RURxcBZRdpfZrrlF9Jex9UcSRQevIsqffNT+yz5DlR0icGw0mldfr3PK8WMI59aqvMySfeoBzBh1w2gzqzwRk8t8hCy7VQjvdpu902KaEA4jiw5exuRmTlR2azGMb+iyK8b4l24q7SEcNd2pfG9BLAAAAlhJREFUkS47QJVbf28m3wZVnmJPI8zOjfHQWMivOA9VHhlLGB38iOvp8DOv3u24yv0llNnZcIXWUXxDNuEBZPV7ImV20I1zMomr75oL2RZxBml08Am2xwJHx6mRvkil02izA+yYikD0FIqSWViVccTZocem2TNwbYhy0e3gdhJHB9GDsK4a7YhPexZHn99O6uwwQby//8n2spqMXInBaysijw5G8jTfS/i1t8hAwUYOVcZF+uyghsdhI2H1TV4Ywp9awaWoTgN0cC9nY+OIhrev62wUXrBrMp8WsVek/43wD0oJq0uZ/v6fA5Wjiz9uPs3fAu9bLdBB3EDDlIQNHZsZY7Ibt3+nHuysbW78h3Rogg4CtlmNbtBiXdhBfpDF7OaAPjLFWnRFGqEDh6+V6O58Wid2UHKbheymgl4y0zp0F0A3WW4Vuv19tWMXvdsadHe1gH5yMskKdH2yQUf51Ir94j3QUzbZlaObArqK8outG/SVIWrRLQ0ALzxzkmwDraVJ3WDhbj/QXOb1U4SuGfSXE5NVkAvrAk+QWgUTSiNHgWeI/AmlK+4Hj5FpUgeq2g+HgwdJ/Xx56J68CJ4l4RlhktBdGw0eJ8UbZZDLfAE8Ufy6YkTJRS10gIdKdEa6CLmgDY+DB4triumpvv7XWsDDxVUeaYZc4DuJ4BVwNK7kJXf0gMvL7a/j3qGxeHA5C857if1r061MQT2kFXbkhXppXS/3lSX3WuwU2Xqp2Evp5pKWvffCjOuiVOmTvjh3ttZLByPr68/PLZt4dV951UznvD0lem8MvwEXaREllg2JygAAAABJRU5ErkJggg==;strokeColor=#00984A;fontFamily=Helvetica;fontSize=12;aspect=fixed;" vertex="1" parent="1">
          <mxGeometry x="597" y="369" width="73.83" height="120" as="geometry" />
        </mxCell>
        <mxCell id="4NnvcPufkdFd_n3cXTJO-14" value="&amp;lt;&amp;lt;publish Transactions&amp;gt;&amp;gt;" style="edgeStyle=orthogonalEdgeStyle;rounded=0;orthogonalLoop=1;jettySize=auto;html=1;entryX=0;entryY=0.25;entryDx=0;entryDy=0;" edge="1" parent="1" source="4NnvcPufkdFd_n3cXTJO-27" target="4NnvcPufkdFd_n3cXTJO-13">
          <mxGeometry x="0.0043" relative="1" as="geometry">
            <mxPoint as="offset" />
          </mxGeometry>
        </mxCell>
        <mxCell id="4NnvcPufkdFd_n3cXTJO-15" value="&amp;lt;&amp;lt;publish Transaction_Confirmation&amp;gt;&amp;gt;" style="edgeStyle=orthogonalEdgeStyle;rounded=0;orthogonalLoop=1;jettySize=auto;html=1;" edge="1" parent="1" target="4NnvcPufkdFd_n3cXTJO-13">
          <mxGeometry relative="1" as="geometry">
            <mxPoint x="920" y="429" as="sourcePoint" />
          </mxGeometry>
        </mxCell>
        <mxCell id="4NnvcPufkdFd_n3cXTJO-16" value="&amp;lt;&amp;lt;consume Transaction_Confirmation&amp;gt;&amp;gt;" style="edgeStyle=orthogonalEdgeStyle;rounded=0;orthogonalLoop=1;jettySize=auto;html=1;entryX=1.002;entryY=0.615;entryDx=0;entryDy=0;entryPerimeter=0;exitX=0;exitY=0.5;exitDx=0;exitDy=0;" edge="1" parent="1" source="4NnvcPufkdFd_n3cXTJO-13" target="4NnvcPufkdFd_n3cXTJO-27">
          <mxGeometry relative="1" as="geometry">
            <mxPoint x="570" y="439" as="sourcePoint" />
            <mxPoint x="430" y="428.75" as="targetPoint" />
          </mxGeometry>
        </mxCell>
        <mxCell id="4NnvcPufkdFd_n3cXTJO-17" value="&amp;lt;&amp;lt;publish Transaction_Confirmation&amp;gt;&amp;gt;" style="edgeStyle=orthogonalEdgeStyle;rounded=0;orthogonalLoop=1;jettySize=auto;html=1;entryX=0;entryY=0.75;entryDx=0;entryDy=0;exitX=0.997;exitY=0.731;exitDx=0;exitDy=0;exitPerimeter=0;" edge="1" parent="1" source="4NnvcPufkdFd_n3cXTJO-27" target="4NnvcPufkdFd_n3cXTJO-13">
          <mxGeometry relative="1" as="geometry">
            <mxPoint x="460" y="509" as="sourcePoint" />
          </mxGeometry>
        </mxCell>
        <mxCell id="4NnvcPufkdFd_n3cXTJO-18" value="&lt;div&gt;- LIstagem de Contas&lt;/div&gt;&lt;div&gt;- Listagem de transacoes&lt;br&gt;&lt;/div&gt;&lt;div&gt;- Exibição do Saldo&lt;/div&gt;&lt;div&gt;- Listagem das chaves PIX&lt;/div&gt;&lt;div&gt;- Cadastrar chave PIX (CPF ou Email)&lt;/div&gt;- Realizar Transferencia&lt;div&gt;&lt;br&gt;&lt;/div&gt;" style="text;html=1;align=left;verticalAlign=middle;resizable=0;points=[];autosize=1;strokeColor=none;fillColor=none;" vertex="1" parent="1">
          <mxGeometry x="160" y="899" width="230" height="110" as="geometry" />
        </mxCell>
        <mxCell id="4NnvcPufkdFd_n3cXTJO-19" value="Insert transaction Pending&lt;div&gt;Update transaction Completed&lt;br&gt;&lt;/div&gt;" style="text;html=1;align=center;verticalAlign=middle;resizable=0;points=[];autosize=1;strokeColor=none;fillColor=none;" vertex="1" parent="1">
          <mxGeometry x="1070" y="544" width="190" height="40" as="geometry" />
        </mxCell>
        <mxCell id="4NnvcPufkdFd_n3cXTJO-20" value="Insert transaction Completed" style="text;html=1;align=center;verticalAlign=middle;resizable=0;points=[];autosize=1;strokeColor=none;fillColor=none;" vertex="1" parent="1">
          <mxGeometry x="1703" y="599" width="180" height="30" as="geometry" />
        </mxCell>
        <mxCell id="4NnvcPufkdFd_n3cXTJO-21" value="Insert transaction Pending&lt;div&gt;Update transaction Completed&lt;/div&gt;" style="text;html=1;align=center;verticalAlign=middle;resizable=0;points=[];autosize=1;strokeColor=none;fillColor=none;" vertex="1" parent="1">
          <mxGeometry x="282.5" y="549" width="190" height="40" as="geometry" />
        </mxCell>
        <mxCell id="4NnvcPufkdFd_n3cXTJO-22" value="Bank&lt;div&gt;- Id&amp;nbsp; &amp;nbsp; &amp;nbsp; &amp;nbsp; &amp;nbsp; &lt;span style=&quot;white-space: pre;&quot;&gt;&#x9;&lt;/span&gt;&lt;span style=&quot;white-space: pre;&quot;&gt;&#x9;&lt;span style=&quot;white-space: pre;&quot;&gt;&#x9;&lt;/span&gt;&lt;span style=&quot;white-space: pre;&quot;&gt;&#x9;&lt;/span&gt;&lt;span style=&quot;white-space: pre;&quot;&gt;&#x9;&lt;/span&gt;&lt;/span&gt;guid&lt;br&gt;&lt;div&gt;- Code &lt;span style=&quot;white-space: pre;&quot;&gt;&#x9;&lt;/span&gt;&lt;span style=&quot;white-space: pre;&quot;&gt;&#x9;&lt;span style=&quot;white-space: pre;&quot;&gt;&#x9;&lt;/span&gt;&lt;span style=&quot;white-space: pre;&quot;&gt;&#x9;&lt;/span&gt;&lt;span style=&quot;white-space: pre;&quot;&gt;&#x9;&lt;/span&gt;&lt;/span&gt;string&lt;/div&gt;&lt;div&gt;- Name&amp;nbsp; &amp;nbsp;&lt;span style=&quot;white-space: pre;&quot;&gt;&#x9;&lt;/span&gt;&lt;span style=&quot;white-space: pre;&quot;&gt;&#x9;&lt;span style=&quot;white-space: pre;&quot;&gt;&#x9;&lt;/span&gt;&lt;span style=&quot;white-space: pre;&quot;&gt;&#x9;&lt;/span&gt;&lt;span style=&quot;white-space: pre;&quot;&gt;&#x9;&lt;/span&gt;&lt;/span&gt;string&lt;/div&gt;&lt;div&gt;- CreatedAt &lt;span style=&quot;white-space: pre;&quot;&gt;&#x9;&lt;span style=&quot;white-space: pre;&quot;&gt;&#x9;&lt;/span&gt;&lt;span style=&quot;white-space: pre;&quot;&gt;&#x9;&lt;/span&gt;&lt;span style=&quot;white-space: pre;&quot;&gt;&#x9;&lt;/span&gt;&lt;/span&gt;datetime&lt;/div&gt;&lt;/div&gt;&lt;div&gt;- UpdatedAt &lt;span style=&quot;white-space: pre;&quot;&gt;&#x9;&lt;span style=&quot;white-space: pre;&quot;&gt;&#x9;&lt;/span&gt;&lt;span style=&quot;white-space: pre;&quot;&gt;&#x9;&lt;/span&gt;&lt;span style=&quot;white-space: pre;&quot;&gt;&#x9;&lt;/span&gt;&lt;/span&gt;datetime&lt;/div&gt;&lt;div&gt;- Accounts&lt;span style=&quot;white-space: pre;&quot;&gt;&#x9;&lt;span style=&quot;white-space: pre;&quot;&gt;&#x9;&lt;/span&gt;&lt;span style=&quot;white-space: pre;&quot;&gt;&#x9;&lt;/span&gt;&lt;span style=&quot;white-space: pre;&quot;&gt;&#x9;&lt;/span&gt;&lt;/span&gt;List&amp;lt;Account&amp;gt;&lt;/div&gt;&lt;div&gt;&lt;br&gt;&lt;/div&gt;&lt;div&gt;Account&lt;/div&gt;&lt;div&gt;- Id&lt;span style=&quot;white-space: pre;&quot;&gt;&#x9;&lt;/span&gt;&lt;span style=&quot;white-space: pre;&quot;&gt;&#x9;&lt;/span&gt;&lt;span style=&quot;white-space: pre;&quot;&gt;&#x9;&lt;span style=&quot;white-space: pre;&quot;&gt;&#x9;&lt;/span&gt;&lt;span style=&quot;white-space: pre;&quot;&gt;&#x9;&lt;/span&gt;&lt;span style=&quot;white-space: pre;&quot;&gt;&#x9;&lt;/span&gt;&lt;/span&gt;guid&lt;/div&gt;&lt;div&gt;- OwnerName &lt;span style=&quot;white-space: pre;&quot;&gt;&#x9;&lt;/span&gt;&lt;span style=&quot;white-space: pre;&quot;&gt;&#x9;&lt;/span&gt;&lt;span style=&quot;white-space: pre;&quot;&gt;&#x9;&lt;/span&gt;&lt;span style=&quot;white-space: pre;&quot;&gt;&#x9;&lt;/span&gt;string&lt;/div&gt;&lt;div&gt;- BankId&lt;span style=&quot;white-space: pre;&quot;&gt;&#x9;&lt;/span&gt;&lt;span style=&quot;white-space: pre;&quot;&gt;&#x9;&lt;span style=&quot;white-space: pre;&quot;&gt;&#x9;&lt;/span&gt;&lt;span style=&quot;white-space: pre;&quot;&gt;&#x9;&lt;/span&gt;&lt;span style=&quot;white-space: pre;&quot;&gt;&#x9;&lt;/span&gt;&lt;/span&gt;guid&lt;/div&gt;&lt;div&gt;- Bank&lt;span style=&quot;white-space: pre;&quot;&gt;&#x9;&lt;span style=&quot;white-space: pre;&quot;&gt;&#x9;&lt;span style=&quot;white-space: pre;&quot;&gt;&#x9;&lt;/span&gt;&lt;span style=&quot;white-space: pre;&quot;&gt;&#x9;&lt;/span&gt;&lt;span style=&quot;white-space: pre;&quot;&gt;&#x9;&lt;/span&gt;&lt;/span&gt;Bank&lt;/span&gt;&lt;/div&gt;&lt;div&gt;- Number&lt;span style=&quot;white-space: pre;&quot;&gt;&#x9;&lt;/span&gt;&lt;span style=&quot;white-space: pre;&quot;&gt;&#x9;&lt;span style=&quot;white-space: pre;&quot;&gt;&#x9;&lt;/span&gt;&lt;span style=&quot;white-space: pre;&quot;&gt;&#x9;&lt;/span&gt;&lt;span style=&quot;white-space: pre;&quot;&gt;&#x9;&lt;/span&gt;&lt;/span&gt;string&lt;/div&gt;&lt;div&gt;&lt;div&gt;- CreatedAt&amp;nbsp;&lt;span style=&quot;white-space: pre;&quot;&gt;&#x9;&lt;span style=&quot;white-space: pre;&quot;&gt;&#x9;&lt;/span&gt;&lt;span style=&quot;white-space: pre;&quot;&gt;&#x9;&lt;/span&gt;&lt;span style=&quot;white-space: pre;&quot;&gt;&#x9;&lt;/span&gt;&lt;/span&gt;datetime&lt;/div&gt;&lt;div&gt;- UpdatedAt&amp;nbsp;&lt;span style=&quot;white-space: pre;&quot;&gt;&#x9;&lt;span style=&quot;white-space: pre;&quot;&gt;&#x9;&lt;/span&gt;&lt;span style=&quot;white-space: pre;&quot;&gt;&#x9;&lt;/span&gt;&lt;span style=&quot;white-space: pre;&quot;&gt;&#x9;&lt;/span&gt;&lt;/span&gt;datetime&lt;/div&gt;&lt;/div&gt;&lt;div&gt;- PixKeys&lt;span style=&quot;white-space: pre;&quot;&gt;&#x9;&lt;/span&gt;&lt;span style=&quot;white-space: pre;&quot;&gt;&#x9;&lt;span style=&quot;white-space: pre;&quot;&gt;&#x9;&lt;/span&gt;&lt;span style=&quot;white-space: pre;&quot;&gt;&#x9;&lt;/span&gt;&lt;span style=&quot;white-space: pre;&quot;&gt;&#x9;&lt;/span&gt;&lt;/span&gt;List&amp;lt;PixKey&amp;gt;&lt;/div&gt;&lt;div&gt;&lt;br&gt;&lt;/div&gt;&lt;div&gt;PixKey (IAggregateRoot)&lt;/div&gt;&lt;div&gt;- Id&lt;span style=&quot;white-space: pre;&quot;&gt;&#x9;&lt;/span&gt;&lt;span style=&quot;white-space: pre;&quot;&gt;&#x9;&lt;/span&gt;&lt;span style=&quot;white-space: pre;&quot;&gt;&#x9;&lt;span style=&quot;white-space: pre;&quot;&gt;&#x9;&lt;/span&gt;&lt;span style=&quot;white-space: pre;&quot;&gt;&#x9;&lt;/span&gt;&lt;span style=&quot;white-space: pre;&quot;&gt;&#x9;&lt;/span&gt;&lt;/span&gt;guid&lt;/div&gt;&lt;div&gt;&lt;span style=&quot;background-color: initial;&quot;&gt;- Kind&lt;span style=&quot;white-space: pre;&quot;&gt;&#x9;&lt;/span&gt;&lt;span style=&quot;white-space: pre;&quot;&gt;&#x9;&lt;span style=&quot;white-space: pre;&quot;&gt;&#x9;&lt;/span&gt;&lt;span style=&quot;white-space: pre;&quot;&gt;&#x9;&lt;/span&gt;&lt;span style=&quot;white-space: pre;&quot;&gt;&#x9;&lt;/span&gt;&lt;/span&gt;int (Enum) (Email or Cpf)&lt;/span&gt;&lt;br&gt;&lt;/div&gt;&lt;div&gt;&lt;span style=&quot;background-color: initial;&quot;&gt;- Key&lt;span style=&quot;white-space: pre;&quot;&gt;&#x9;&lt;/span&gt;&lt;span style=&quot;white-space: pre;&quot;&gt;&#x9;&lt;span style=&quot;white-space: pre;&quot;&gt;&#x9;&lt;/span&gt;&lt;span style=&quot;white-space: pre;&quot;&gt;&#x9;&lt;/span&gt;&lt;span style=&quot;white-space: pre;&quot;&gt;&#x9;&lt;/span&gt;&lt;/span&gt;string&lt;/span&gt;&lt;/div&gt;&lt;div&gt;&lt;span style=&quot;background-color: initial;&quot;&gt;- AccountId&lt;span style=&quot;white-space: pre;&quot;&gt;&#x9;&lt;span style=&quot;white-space: pre;&quot;&gt;&#x9;&lt;/span&gt;&lt;span style=&quot;white-space: pre;&quot;&gt;&#x9;&lt;/span&gt;&lt;span style=&quot;white-space: pre;&quot;&gt;&#x9;&lt;/span&gt;&lt;/span&gt;guid&lt;/span&gt;&lt;/div&gt;&lt;div&gt;&lt;span style=&quot;background-color: initial;&quot;&gt;- Account&lt;span style=&quot;white-space: pre;&quot;&gt;&#x9;&lt;/span&gt;&lt;span style=&quot;white-space: pre;&quot;&gt;&#x9;&lt;span style=&quot;white-space: pre;&quot;&gt;&#x9;&lt;/span&gt;&lt;span style=&quot;white-space: pre;&quot;&gt;&#x9;&lt;/span&gt;&lt;span style=&quot;white-space: pre;&quot;&gt;&#x9;&lt;/span&gt;&lt;/span&gt;Account&lt;/span&gt;&lt;/div&gt;&lt;div&gt;- Status&lt;span style=&quot;white-space: pre;&quot;&gt;&#x9;&lt;/span&gt;&lt;span style=&quot;white-space: pre;&quot;&gt;&#x9;&lt;span style=&quot;white-space: pre;&quot;&gt;&#x9;&lt;/span&gt;&lt;span style=&quot;white-space: pre;&quot;&gt;&#x9;&lt;/span&gt;&lt;span style=&quot;white-space: pre;&quot;&gt;&#x9;&lt;/span&gt;&lt;/span&gt;&lt;span style=&quot;background-color: initial;&quot;&gt;int (Enum) (Active or Inactive)&lt;/span&gt;&lt;/div&gt;&lt;div&gt;&lt;br&gt;&lt;/div&gt;" style="shape=note;whiteSpace=wrap;html=1;size=14;verticalAlign=top;align=left;spacingTop=-6;fillColor=#fff2cc;strokeColor=#d6b656;gradientColor=#ffd966;fontFamily=Helvetica;fontSize=12;" vertex="1" parent="1">
          <mxGeometry x="842.5" y="720" width="340" height="360" as="geometry" />
        </mxCell>
        <mxCell id="4NnvcPufkdFd_n3cXTJO-23" value="- RegisterKey(pixKey)&lt;div&gt;- FindKeyByKind(key, kind)&lt;/div&gt;&lt;div&gt;- AddBank(bank)&lt;/div&gt;&lt;div&gt;- AddAccount(account)&lt;/div&gt;&lt;div&gt;- FindAccount(Id)&lt;/div&gt;&lt;div&gt;&lt;br&gt;&lt;/div&gt;" style="text;html=1;align=left;verticalAlign=middle;resizable=0;points=[];autosize=1;strokeColor=none;fillColor=none;" vertex="1" parent="1">
          <mxGeometry x="950" y="129" width="170" height="100" as="geometry" />
        </mxCell>
        <mxCell id="4NnvcPufkdFd_n3cXTJO-24" value="Transaction (IAggregateRoot)&lt;div&gt;- Id&amp;nbsp; &amp;nbsp; &amp;nbsp; &amp;nbsp; &amp;nbsp; &lt;span style=&quot;white-space: pre;&quot;&gt;&#x9;&lt;/span&gt;&lt;span style=&quot;white-space: pre;&quot;&gt;&#x9;&lt;span style=&quot;white-space: pre;&quot;&gt;&#x9;&lt;/span&gt;&lt;span style=&quot;white-space: pre;&quot;&gt;&#x9;&lt;/span&gt;&lt;span style=&quot;white-space: pre;&quot;&gt;&#x9;&lt;/span&gt;&lt;/span&gt;guid&lt;br&gt;&lt;div&gt;- AccountFrom&lt;span style=&quot;white-space: pre;&quot;&gt;&#x9;&lt;/span&gt;&lt;span style=&quot;white-space: pre;&quot;&gt;&#x9;&lt;/span&gt;&lt;span style=&quot;white-space: pre;&quot;&gt;&#x9;&lt;/span&gt;&lt;span style=&quot;white-space: pre;&quot;&gt;&#x9;&lt;/span&gt;Account&lt;/div&gt;&lt;/div&gt;&lt;div&gt;- AccountFromId&lt;span style=&quot;white-space: pre;&quot;&gt;&#x9;&lt;/span&gt;&lt;span style=&quot;white-space: pre;&quot;&gt;&#x9;&lt;/span&gt;&lt;span style=&quot;white-space: pre;&quot;&gt;&#x9;&lt;/span&gt;guid&lt;/div&gt;&lt;div&gt;- Amount&lt;span style=&quot;white-space: pre;&quot;&gt;&#x9;&lt;/span&gt;&lt;span style=&quot;white-space: pre;&quot;&gt;&#x9;&lt;/span&gt;&lt;span style=&quot;white-space: pre;&quot;&gt;&#x9;&lt;/span&gt;&lt;span style=&quot;white-space: pre;&quot;&gt;&#x9;&lt;/span&gt;&lt;span style=&quot;white-space: pre;&quot;&gt;&#x9;&lt;/span&gt;decimal&lt;/div&gt;&lt;div&gt;- PixKeyTo&lt;span style=&quot;white-space: pre;&quot;&gt;&#x9;&lt;/span&gt;&lt;span style=&quot;white-space: pre;&quot;&gt;&#x9;&lt;/span&gt;&lt;span style=&quot;white-space: pre;&quot;&gt;&#x9;&lt;/span&gt;&lt;span style=&quot;white-space: pre;&quot;&gt;&#x9;&lt;/span&gt;PixKey&lt;/div&gt;&lt;div&gt;- PixKeyToId&lt;span style=&quot;white-space: pre;&quot;&gt;&#x9;&lt;/span&gt;&lt;span style=&quot;white-space: pre;&quot;&gt;&#x9;&lt;/span&gt;&lt;span style=&quot;white-space: pre;&quot;&gt;&#x9;&lt;/span&gt;&lt;span style=&quot;white-space: pre;&quot;&gt;&#x9;&lt;/span&gt;guid&lt;/div&gt;&lt;div&gt;- Status&lt;span style=&quot;white-space: pre;&quot;&gt;&#x9;&lt;/span&gt;&lt;span style=&quot;white-space: pre;&quot;&gt;&#x9;&lt;/span&gt;&lt;span style=&quot;white-space: pre;&quot;&gt;&#x9;&lt;/span&gt;&lt;span style=&quot;white-space: pre;&quot;&gt;&#x9;&lt;/span&gt;&lt;span style=&quot;white-space: pre;&quot;&gt;&#x9;&lt;/span&gt;int (Enum) (Pending, Completed, Error, Confirmed)&lt;/div&gt;&lt;div&gt;- Description&lt;span style=&quot;white-space: pre;&quot;&gt;&#x9;&lt;/span&gt;&lt;span style=&quot;white-space: pre;&quot;&gt;&#x9;&lt;/span&gt;&lt;span style=&quot;white-space: pre;&quot;&gt;&#x9;&lt;/span&gt;&lt;span style=&quot;white-space: pre;&quot;&gt;&#x9;&lt;/span&gt;string&lt;/div&gt;&lt;div&gt;- CancelDescription&lt;span style=&quot;white-space: pre;&quot;&gt;&#x9;&lt;/span&gt;&lt;span style=&quot;white-space: pre;&quot;&gt;&#x9;&lt;/span&gt;&lt;span style=&quot;white-space: pre;&quot;&gt;&#x9;&lt;/span&gt;string&lt;/div&gt;" style="shape=note;whiteSpace=wrap;html=1;size=14;verticalAlign=top;align=left;spacingTop=-6;fillColor=#fff2cc;strokeColor=#d6b656;gradientColor=#ffd966;fontFamily=Helvetica;fontSize=12;" vertex="1" parent="1">
          <mxGeometry x="1200" y="720" width="440" height="170" as="geometry" />
        </mxCell>
        <mxCell id="4NnvcPufkdFd_n3cXTJO-25" value="- Register(transaction) (Pending)&lt;div&gt;- Update(transaction)&lt;/div&gt;&lt;div&gt;- Find(id)&lt;/div&gt;&lt;div&gt;&lt;br&gt;&lt;/div&gt;" style="text;html=1;align=left;verticalAlign=middle;resizable=0;points=[];autosize=1;strokeColor=none;fillColor=none;" vertex="1" parent="1">
          <mxGeometry x="1120" y="139" width="200" height="70" as="geometry" />
        </mxCell>
        <mxCell id="4NnvcPufkdFd_n3cXTJO-26" value="" style="group" connectable="0" vertex="1" parent="1">
          <mxGeometry x="140" y="269" width="185" height="260" as="geometry" />
        </mxCell>
        <mxCell id="4NnvcPufkdFd_n3cXTJO-27" value="" style="rounded=1;whiteSpace=wrap;html=1;fillColor=#fff2cc;strokeColor=#d6b656;" vertex="1" parent="4NnvcPufkdFd_n3cXTJO-26">
          <mxGeometry width="185" height="260" as="geometry" />
        </mxCell>
        <mxCell id="4NnvcPufkdFd_n3cXTJO-28" value="Banco A" style="rounded=1;whiteSpace=wrap;html=1;" vertex="1" parent="4NnvcPufkdFd_n3cXTJO-26">
          <mxGeometry x="35" y="30" width="120" height="60" as="geometry" />
        </mxCell>
        <mxCell id="4NnvcPufkdFd_n3cXTJO-29" value="sqlserver&lt;div&gt;banco_a&lt;/div&gt;" style="shape=cylinder3;whiteSpace=wrap;html=1;boundedLbl=1;backgroundOutline=1;size=15;" vertex="1" parent="4NnvcPufkdFd_n3cXTJO-26">
          <mxGeometry x="65" y="150" width="60" height="80" as="geometry" />
        </mxCell>
        <mxCell id="4NnvcPufkdFd_n3cXTJO-30" style="edgeStyle=orthogonalEdgeStyle;rounded=0;orthogonalLoop=1;jettySize=auto;html=1;" edge="1" parent="4NnvcPufkdFd_n3cXTJO-26" source="4NnvcPufkdFd_n3cXTJO-28" target="4NnvcPufkdFd_n3cXTJO-29">
          <mxGeometry relative="1" as="geometry" />
        </mxCell>
        <mxCell id="4NnvcPufkdFd_n3cXTJO-31" value="" style="group" connectable="0" vertex="1" parent="1">
          <mxGeometry x="920" y="269" width="185" height="260" as="geometry" />
        </mxCell>
        <mxCell id="4NnvcPufkdFd_n3cXTJO-32" value="" style="rounded=1;whiteSpace=wrap;html=1;fillColor=#d5e8d4;strokeColor=#82b366;" vertex="1" parent="4NnvcPufkdFd_n3cXTJO-31">
          <mxGeometry width="185" height="260" as="geometry" />
        </mxCell>
        <mxCell id="4NnvcPufkdFd_n3cXTJO-33" value="CodePix" style="rounded=1;whiteSpace=wrap;html=1;" vertex="1" parent="4NnvcPufkdFd_n3cXTJO-31">
          <mxGeometry x="35" y="30" width="120" height="60" as="geometry" />
        </mxCell>
        <mxCell id="4NnvcPufkdFd_n3cXTJO-34" value="sqlsever&lt;div&gt;codepix&lt;/div&gt;" style="shape=cylinder3;whiteSpace=wrap;html=1;boundedLbl=1;backgroundOutline=1;size=15;" vertex="1" parent="4NnvcPufkdFd_n3cXTJO-31">
          <mxGeometry x="65" y="150" width="60" height="80" as="geometry" />
        </mxCell>
        <mxCell id="4NnvcPufkdFd_n3cXTJO-35" style="edgeStyle=orthogonalEdgeStyle;rounded=0;orthogonalLoop=1;jettySize=auto;html=1;" edge="1" parent="4NnvcPufkdFd_n3cXTJO-31" source="4NnvcPufkdFd_n3cXTJO-33" target="4NnvcPufkdFd_n3cXTJO-34">
          <mxGeometry relative="1" as="geometry" />
        </mxCell>
        <mxCell id="4NnvcPufkdFd_n3cXTJO-36" value="" style="group" connectable="0" vertex="1" parent="1">
          <mxGeometry x="1693" y="269" width="185" height="260" as="geometry" />
        </mxCell>
        <mxCell id="4NnvcPufkdFd_n3cXTJO-37" value="" style="rounded=1;whiteSpace=wrap;html=1;fillColor=#fff2cc;strokeColor=#d6b656;" vertex="1" parent="4NnvcPufkdFd_n3cXTJO-36">
          <mxGeometry width="185" height="260" as="geometry" />
        </mxCell>
        <mxCell id="4NnvcPufkdFd_n3cXTJO-38" value="Banco B" style="rounded=1;whiteSpace=wrap;html=1;" vertex="1" parent="4NnvcPufkdFd_n3cXTJO-36">
          <mxGeometry x="35" y="30" width="120" height="60" as="geometry" />
        </mxCell>
        <mxCell id="4NnvcPufkdFd_n3cXTJO-39" value="sqlserver&lt;div&gt;banco_b&lt;/div&gt;" style="shape=cylinder3;whiteSpace=wrap;html=1;boundedLbl=1;backgroundOutline=1;size=15;" vertex="1" parent="4NnvcPufkdFd_n3cXTJO-36">
          <mxGeometry x="65" y="150" width="60" height="80" as="geometry" />
        </mxCell>
        <mxCell id="4NnvcPufkdFd_n3cXTJO-40" style="edgeStyle=orthogonalEdgeStyle;rounded=0;orthogonalLoop=1;jettySize=auto;html=1;" edge="1" parent="4NnvcPufkdFd_n3cXTJO-36" source="4NnvcPufkdFd_n3cXTJO-38" target="4NnvcPufkdFd_n3cXTJO-39">
          <mxGeometry relative="1" as="geometry" />
        </mxCell>
        <mxCell id="4NnvcPufkdFd_n3cXTJO-41" value="- Salvar transaction &quot;Debit&quot; e publicar no topico &quot;transactions&quot;&lt;div&gt;&lt;br&gt;&lt;div&gt;- Consumir topico &quot;transaction_confirmation&quot; e Salvar transaction &quot;Credit&quot; e &quot;Completed&quot;&lt;div&gt;&amp;nbsp;e publicar no topico &quot;transaction_confirmation&quot;&lt;/div&gt;&lt;/div&gt;&lt;/div&gt;" style="text;html=1;align=left;verticalAlign=middle;resizable=0;points=[];autosize=1;strokeColor=none;fillColor=none;" vertex="1" parent="1">
          <mxGeometry x="160" y="609" width="490" height="70" as="geometry" />
        </mxCell>
        <mxCell id="4NnvcPufkdFd_n3cXTJO-42" value="- Consumir topico &quot;transaction_confirmation&quot; e salvar transaction &quot;Pending&quot;&lt;div&gt;&amp;nbsp;e publicar no topico &quot;transaction_confirmation&quot; &quot;Pending&quot;&lt;/div&gt;&lt;div&gt;&lt;br&gt;&lt;/div&gt;&lt;div&gt;- Consumir topico &quot;transaction_confirmation&quot;&amp;nbsp;&lt;div&gt;&amp;nbsp;e Salvar transaction &quot;Completed&quot;&lt;/div&gt;&lt;/div&gt;" style="text;html=1;align=left;verticalAlign=middle;resizable=0;points=[];autosize=1;strokeColor=none;fillColor=none;" vertex="1" parent="1">
          <mxGeometry x="870" y="609" width="420" height="90" as="geometry" />
        </mxCell>
        <mxCell id="4NnvcPufkdFd_n3cXTJO-43" value="&lt;div&gt;&lt;br&gt;&lt;/div&gt;&lt;div&gt;ROTAS&lt;/div&gt;GET:&lt;span style=&quot;white-space: pre;&quot;&gt;&#x9;&lt;/span&gt;api/bank-accounts/&lt;div&gt;GET:&lt;span style=&quot;white-space: pre;&quot;&gt;&#x9;&lt;/span&gt;api/bank-accounts/{accountId}&lt;br&gt;&lt;/div&gt;&lt;div&gt;&lt;br&gt;&lt;/div&gt;&lt;div&gt;GET:&lt;span style=&quot;white-space: pre;&quot;&gt;&#x9;&lt;/span&gt;api/bank-accounts/{accountId}/pix-keys&lt;/div&gt;&lt;div&gt;POST:&lt;span style=&quot;white-space: pre;&quot;&gt;&#x9;&lt;/span&gt;api/bank-accounts/{accountId}/pix-keys&lt;br&gt;&lt;/div&gt;&lt;div&gt;GET:&amp;nbsp;&lt;span style=&quot;white-space: pre;&quot;&gt;&#x9;&lt;/span&gt;api/bank-accounts/{accountId}/pix-keys/exists&lt;br&gt;&lt;/div&gt;&lt;div&gt;&lt;br&gt;&lt;/div&gt;&lt;div&gt;GET:&lt;span style=&quot;white-space: pre;&quot;&gt;&#x9;&lt;/span&gt;api/bank-accounts/{accountId}/transactions&lt;br&gt;&lt;/div&gt;&lt;div&gt;POST:&lt;span style=&quot;white-space: pre;&quot;&gt;&#x9;&lt;/span&gt;api/bank-accounts/{accountId}/transactions&lt;br&gt;&lt;/div&gt;" style="text;html=1;align=left;verticalAlign=middle;resizable=0;points=[];autosize=1;strokeColor=none;fillColor=none;" vertex="1" parent="1">
          <mxGeometry x="120" y="89" width="320" height="170" as="geometry" />
        </mxCell>
        <mxCell id="4NnvcPufkdFd_n3cXTJO-44" value="" style="group" connectable="0" vertex="1" parent="1">
          <mxGeometry x="160" y="769" width="185" height="120" as="geometry" />
        </mxCell>
        <mxCell id="4NnvcPufkdFd_n3cXTJO-45" value="" style="rounded=1;whiteSpace=wrap;html=1;fillColor=#fff2cc;strokeColor=#d6b656;" vertex="1" parent="4NnvcPufkdFd_n3cXTJO-44">
          <mxGeometry width="185" height="120" as="geometry" />
        </mxCell>
        <mxCell id="4NnvcPufkdFd_n3cXTJO-46" value="FrontEnd" style="rounded=1;whiteSpace=wrap;html=1;" vertex="1" parent="4NnvcPufkdFd_n3cXTJO-44">
          <mxGeometry x="35" y="30" width="120" height="60" as="geometry" />
        </mxCell>
        <mxCell id="4NnvcPufkdFd_n3cXTJO-47" style="edgeStyle=orthogonalEdgeStyle;rounded=0;orthogonalLoop=1;jettySize=auto;html=1;entryX=0;entryY=0.5;entryDx=0;entryDy=0;exitX=0;exitY=0.5;exitDx=0;exitDy=0;" edge="1" parent="1" source="4NnvcPufkdFd_n3cXTJO-45" target="4NnvcPufkdFd_n3cXTJO-27">
          <mxGeometry relative="1" as="geometry">
            <Array as="points">
              <mxPoint x="50" y="829" />
              <mxPoint x="50" y="399" />
            </Array>
          </mxGeometry>
        </mxCell>
      </root>
    </mxGraphModel>
  </diagram>
</mxfile>
